<?xml version="1.0" encoding="UTF-8" standalone="no"?>
<!-- Created with Inkscape (http://www.inkscape.org/) -->

<svg
   width="50.467976mm"
   height="23.980167mm"
   viewBox="0 0 50.467976 23.980167"
   version="1.1"
   id="svg1619"
   xml:space="preserve"
   xmlns="http://www.w3.org/2000/svg"
   xmlns:svg="http://www.w3.org/2000/svg"><defs
     id="defs1616" /><g
     id="layer1"
     transform="translate(-126.64485,-32.016072)"><path
       style="fill:#ffffff;stroke-width:0.264583"
       d="m 129.9932,55.646033 c -2.08624,-0.74385 -3.34835,-2.642847 -3.34835,-5.038024 0,-2.537248 1.47545,-4.559243 3.77961,-5.179689 1.19174,-0.320903 3.22795,-0.157512 3.78356,0.303604 0.50983,0.423121 1.018,0.05097 3.76978,-2.760778 2.12079,-2.16699 2.44116,-2.609124 2.26926,-3.131718 -1.00766,-3.063392 -0.14098,-5.784171 2.30084,-7.223086 0.6496,-0.382792 1.37371,-0.529167 2.61778,-0.529167 1.47139,0 1.89177,0.114912 2.91042,0.795571 2.07489,1.386432 2.86464,3.879618 2.06955,6.533408 l -0.3117,1.040372 2.82465,2.824652 c 2.51479,2.51479 2.88023,2.789941 3.33132,2.508229 0.91334,-0.57039 2.97021,-0.685746 4.25701,-0.238746 l 1.19063,0.413591 2.84764,-2.836342 c 1.97605,-1.968209 2.7941,-2.958169 2.67273,-3.234372 -0.52521,-1.195186 -0.67723,-2.834831 -0.36764,-3.965357 0.43222,-1.578345 2.13422,-3.284183 3.69655,-3.704873 5.35697,-1.442484 9.1224,4.980568 5.21213,8.89084 -1.59937,1.59936 -3.56116,2.055941 -5.65683,1.316547 l -1.05466,-0.372105 -2.80421,2.819501 -2.80421,2.819501 0.41648,1.254013 c 0.76843,2.313767 -0.15168,4.889687 -2.24187,6.276254 -0.79867,0.529812 -1.30853,0.647062 -2.82653,0.650015 -1.56695,0.003 -2.00865,-0.103188 -2.86912,-0.690055 -2.14899,-1.465682 -3.05337,-4.09335 -2.22573,-6.466785 l 0.38121,-1.093225 -2.80901,-2.79872 -2.80902,-2.79872 -1.05187,0.374602 c -1.33867,0.476739 -2.62158,0.475539 -3.96229,-0.0037 l -1.05833,-0.378308 -2.79798,2.786656 -2.79798,2.786656 0.49443,1.464553 c 0.46794,1.386082 0.47112,1.54474 0.0594,2.961079 -0.91553,3.149674 -3.99791,4.725784 -7.08768,3.624131 z m 3.95415,-2.894899 c 0.76786,-0.767855 0.89958,-1.081679 0.89958,-2.143125 0,-1.061446 -0.13172,-1.375271 -0.89958,-2.143125 -0.69441,-0.69441 -1.11982,-0.899584 -1.86522,-0.899584 -1.33779,0 -2.37715,0.605316 -2.88806,1.681977 -0.54171,1.141581 -0.54186,1.579579 -9e-4,2.719584 0.52189,1.099804 1.46974,1.659055 2.83594,1.673263 0.81343,0.0085 1.19988,-0.170641 1.91823,-0.88899 z m 26.31807,0.299479 c 2.4671,-1.662575 1.14237,-5.485313 -1.90088,-5.485313 -0.80376,0 -1.20156,0.191177 -1.94525,0.934861 -0.78892,0.788932 -0.93486,1.117962 -0.93486,2.107848 0,0.989885 0.14594,1.318916 0.93486,2.107847 1.14714,1.147138 2.46981,1.262259 3.84613,0.334757 z M 147.33991,39.385055 c 0.59209,-0.662664 0.73619,-1.076695 0.73619,-2.11527 0,-1.146971 -0.10455,-1.383134 -0.93525,-2.112493 -2.03311,-1.785101 -4.99142,-0.468439 -4.99142,2.22155 0,1.92677 1.3396,3.132324 3.27225,2.944827 0.90642,-0.08794 1.35371,-0.306802 1.91823,-0.938614 z m 26.63035,0.133431 c 0.58602,-0.586014 0.69647,-0.930882 0.69647,-2.174657 0,-1.362649 -0.0716,-1.537973 -0.91605,-2.242945 -2.72899,-2.278261 -6.36034,0.89809 -4.50525,3.940748 0.65829,1.079713 1.38803,1.403332 2.87275,1.273989 0.80585,-0.0702 1.36642,-0.311472 1.85208,-0.797135 z M 140.19152,49.62905 c -0.622,-0.621995 -0.31206,-1.425745 1.07988,-2.800392 1.76436,-1.742438 3.10053,-1.863281 3.10053,-0.280409 0,0.453668 -2.96944,3.398301 -3.42694,3.398301 -0.23978,0 -0.57885,-0.142875 -0.75347,-0.3175 z m 19.52625,-7.355416 c -0.29104,-0.291042 -0.52917,-0.620792 -0.52917,-0.732778 0,-0.325477 2.0671,-2.613465 2.78775,-3.085659 0.88683,-0.581069 1.71017,-0.157908 1.71017,0.878949 0,0.560112 -0.35875,1.085354 -1.43937,2.107358 -0.79166,0.748713 -1.56556,1.361296 -1.71979,1.361296 -0.15424,0 -0.51855,-0.238125 -0.80959,-0.529166 z"
       id="path2855" /></g></svg>
