<?xml version="1.0" encoding="UTF-8" standalone="no"?>
<!-- Created with Inkscape (http://www.inkscape.org/) -->

<svg
   width="298.71457mm"
   height="115.62292mm"
   viewBox="0 0 298.71457 115.62292"
   version="1.1"
   id="svg854"
   xml:space="preserve"
   xmlns="http://www.w3.org/2000/svg"
   xmlns:svg="http://www.w3.org/2000/svg"><defs
     id="defs851" /><g
     id="layer1"
     transform="translate(53.904177,-80.359896)"><rect
       style="fill:#ffffff;fill-opacity:1;stroke-width:0.391185"
       id="rect5764"
       width="298.715"
       height="115.623"
       x="-53.904179"
       y="80.359894" /><path
       style="fill:#1c1c1c;fill-opacity:1;stroke-width:0.264583"
       d="M -53.904177,138.17136 V 80.359896 H 95.453108 244.81039 v 57.811464 57.81146 H 95.453108 -53.904177 Z m 113.073363,40.81471 0.75774,-0.80615 -0.136401,-1.21013 c -0.263091,-2.33414 -2.480804,-3.19942 -4.219178,-1.64618 l -0.864071,0.77205 v 1.19101 c 0,2.60646 2.657819,3.61874 4.46191,1.6994 z m -2.689201,-0.51867 c -0.174625,-0.17463 -0.3175,-0.77249 -0.3175,-1.32859 v -1.01109 l 0.692539,-0.31554 0.692541,-0.31554 0.498084,0.61511 c 0.56547,0.69832 0.605715,1.0327 0.240051,1.99447 -0.280432,0.73759 -1.237811,0.92908 -1.805715,0.36118 z m 22.899686,1.37944 c 0.181901,-0.002 0.330729,-0.27736 0.330729,-0.61194 v -0.60833 l -0.929685,0.10854 c -1.164777,0.13598 -1.717309,-0.30669 -1.712097,-1.37167 0.0062,-1.26648 0.356592,-1.61671 1.585232,-1.58449 l 1.084562,0.0284 -0.08015,-0.56177 -0.08015,-0.56176 -1.104379,-0.0804 -1.104376,-0.0804 -0.879999,0.78627 -0.879996,0.78628 v 1.19101 c 0,1.78292 1.289439,2.96223 2.910416,2.66185 0.291042,-0.0539 0.677995,-0.0997 0.859896,-0.10168 z m -17.640278,-1.78954 0.02066,-1.78594 0.597183,1.71979 0.597181,1.71979 h 0.616405 0.616405 l 0.59718,-1.71979 0.597183,-1.71979 0.02066,1.78594 0.02066,1.78593 h 0.661458 0.661459 v -2.6618 -2.66181 l -0.971259,0.0821 -0.971259,0.0821 -0.570722,1.7141 -0.570722,1.7141 -0.638466,-1.78025 -0.638464,-1.78024 H 61.522672 60.66041 v 2.64583 2.64583 h 0.529167 0.529167 l 0.02066,-1.78593 z m 7.176611,0.1381 0.07877,-1.64784 1.058333,1.64553 1.058333,1.64552 0.727605,0.002 0.727604,0.002 v -2.64584 -2.64583 h -0.648833 -0.648835 l -0.07877,1.65365 -0.07877,1.65364 -1.037918,-1.6668 -1.037918,-1.66681 -0.681873,0.0793 -0.681874,0.0792 -0.07573,2.57969 -0.07573,2.57968 h 0.658413 0.658416 z m 6.031897,-0.998 v -2.64583 h -0.661459 -0.661458 v 2.64583 2.64583 h 0.661458 0.661459 z m 6.53792,2.11667 c 0.10491,-0.40118 0.360897,-0.52917 1.058333,-0.52917 0.697439,0 0.953423,0.12799 1.058333,0.52917 0.09781,0.37403 0.360897,0.52916 0.897411,0.52916 h 0.759032 l -0.488591,-1.25677 c -0.268726,-0.69122 -0.693274,-1.88185 -0.943445,-2.64583 l -0.454854,-1.38906 h -0.772488 c -0.424868,0 -0.772485,0.0453 -0.772485,0.10073 0,0.0554 -0.414581,1.24602 -0.92129,2.64583 l -0.921289,2.5451 h 0.681476 c 0.458962,0 0.72666,-0.17278 0.819857,-0.52916 z m 0.624427,-1.91823 c 0.01021,-0.1819 0.116509,-0.56886 0.236183,-0.8599 0.226126,-0.54993 0.225044,-0.55117 0.637574,0.72761 0.107992,0.33475 0.0051,0.46302 -0.371491,0.46302 -0.286475,0 -0.512495,-0.14883 -0.502266,-0.33073 z m 5.061428,0.94562 0.07935,-1.50178 0.994889,1.50178 c 0.766797,1.15747 1.145921,1.50177 1.653646,1.50177 h 0.658757 v -2.64583 -2.64583 H 89.896858 89.2354 l -0.0024,1.65364 -0.0024,1.65365 -1.090154,-1.65365 c -0.82862,-1.25687 -1.240684,-1.65364 -1.717426,-1.65364 h -0.62724 v 2.64583 2.64583 h 0.648255 0.648253 z m 5.426644,0.97261 c 0.103285,-0.39496 0.360897,-0.52917 1.015733,-0.52917 0.644983,0 0.921837,0.14015 1.045305,0.52917 0.185907,0.58574 1.469311,0.76318 1.435277,0.19843 -0.01095,-0.1819 -0.401751,-1.34276 -0.86842,-2.57968 l -0.84849,-2.24896 h -0.746517 -0.746519 l -0.754549,2.06964 c -0.415002,1.1383 -0.827397,2.29916 -0.916432,2.57969 l -0.161885,0.51004 h 0.704059 c 0.481544,0 0.747794,-0.16724 0.842438,-0.52916 z m 0.624427,-1.91823 c 0.01021,-0.1819 0.109387,-0.56277 0.220356,-0.84637 l 0.201761,-0.51564 0.295047,0.84637 0.295045,0.84637 h -0.515403 c -0.283472,0 -0.507034,-0.14883 -0.496806,-0.33073 z m 6.811653,1.98437 c -0.0575,-0.3034 -0.379669,-0.49132 -0.934599,-0.54512 l -0.84688,-0.0821 -0.077,-2.03457 -0.077,-2.03456 h -0.66146 -0.66146 l -0.0757,2.57969 -0.07573,2.57968 h 1.748769 1.74878 z m 10.75547,-4.14634 c 1.39762,-0.58396 2.15954,-2.5582 1.47844,-3.83085 l -0.25043,-0.46792 1.51982,-1.50395 1.51981,-1.50396 0.84728,0.29536 c 0.58496,0.20392 1.08284,0.21325 1.60813,0.0301 l 0.76085,-0.26524 1.47476,1.49613 1.47476,1.49612 -0.15011,1.09706 c -0.24427,1.7853 1.2399,3.53571 2.99491,3.53216 1.65092,-0.003 3.28369,-2.25196 2.74897,-3.78584 l -0.2852,-0.81814 1.48569,-1.50135 1.48569,-1.50136 0.8441,0.25906 c 1.08527,0.33308 2.57589,-0.25189 3.24532,-1.27357 1.6106,-2.45808 -1.03769,-5.47646 -3.69755,-4.21428 -1.27699,0.60598 -1.94004,2.01052 -1.58213,3.35145 l 0.26274,0.98436 -1.50224,1.48656 -1.50224,1.48657 -0.70794,-0.32256 c -0.51813,-0.23608 -0.9487,-0.24868 -1.60588,-0.047 l -0.89793,0.27558 -1.46745,-1.48873 -1.46745,-1.48874 0.14801,-1.08142 c 0.18385,-1.34331 -0.40428,-2.58652 -1.48896,-3.14743 -1.03662,-0.53606 -1.82086,-0.50436 -2.83604,0.11464 -1.13704,0.6933 -1.46771,1.40647 -1.36231,2.93812 l 0.0887,1.28816 -1.42143,1.44027 -1.42143,1.44027 -0.76605,-0.26704 c -1.02597,-0.35766 -1.98788,-0.0799 -2.90728,0.8395 -0.59218,0.59218 -0.75985,1.00171 -0.75985,1.85593 0,1.37395 0.33557,2.00931 1.40595,2.66196 1.00629,0.61358 1.49194,0.63889 2.68602,0.13997 z m -2.19549,-1.3689 c -0.87505,-0.61291 -0.71767,-2.18506 0.27421,-2.73924 l 0.71547,-0.39976 0.73973,0.5499 c 1.01881,0.75736 1.09471,1.73921 0.1895,2.45125 -0.85301,0.67097 -1.12941,0.69083 -1.91891,0.13785 z m 14.39646,-0.13785 c -0.90521,-0.71204 -0.82931,-1.69389 0.1895,-2.45125 l 0.73973,-0.5499 0.71548,0.39976 c 0.99187,0.55418 1.14925,2.12633 0.2742,2.73924 -0.78949,0.55298 -1.0659,0.53312 -1.91891,-0.13785 z m -6.76794,-6.7675 c -1.14705,-0.40995 -1.43753,-2.16662 -0.47029,-2.84409 0.79144,-0.55435 1.4221,-0.5184 2.05779,0.11729 0.73841,0.73841 0.66981,1.70304 -0.16797,2.36204 -0.73362,0.57707 -0.78705,0.5908 -1.41953,0.36476 z m 14.34163,-0.11273 c -0.32318,-0.11955 -0.72258,-0.51362 -0.88756,-0.87571 l -0.29997,-0.65835 0.42736,-0.65223 c 0.57459,-0.87695 1.37904,-1.09693 2.15413,-0.58907 0.84817,0.55574 1.06879,1.37008 0.57526,2.1233 -0.47548,0.72568 -1.15868,0.9519 -1.96922,0.65206 z m -89.996454,5.89283 0.603798,-0.48892 0.120504,-2.29596 0.120507,-2.29596 -0.768709,0.0586 c -0.422789,0.0322 -0.90414,-0.0251 -1.069663,-0.12743 -0.582311,-0.35989 -1.609722,0.29388 -1.914866,1.21847 -0.554099,1.67893 0.53187,3.11347 1.949058,2.57465 0.756086,-0.28746 0.85643,-0.0861 0.32158,0.64536 -0.278712,0.38116 -0.569402,0.45407 -1.322917,0.33179 -0.712846,-0.11568 -0.965716,-0.0629 -0.965716,0.20148 0,0.77338 2.038049,0.89731 2.926424,0.17794 z m -2.000382,-2.68607 c -0.276074,-0.86984 0.09457,-1.5875 0.819883,-1.5875 0.751104,0 1.028414,0.51031 0.791109,1.4558 -0.210703,0.83951 -1.356608,0.93319 -1.610992,0.1317 z m 46.049523,2.52557 0.649433,-0.64943 v -2.1329 -2.1329 l -0.727604,0.0395 c -0.400182,0.0217 -0.930669,-0.0466 -1.178859,-0.15188 -0.307226,-0.13029 -0.671158,0.0285 -1.14023,0.49761 -0.919419,0.91942 -0.840422,2.379 0.169381,3.12963 l 0.694563,0.51629 0.562208,-0.30088 0.562208,-0.30089 v 0.37379 c 0,0.63658 -0.740474,1.04455 -1.588156,0.87501 -0.760275,-0.15205 -1.094277,0.23253 -0.616704,0.7101 0.433908,0.43391 1.988087,0.15263 2.61376,-0.47304 z m -1.886214,-2.35548 c -0.08362,-0.2179 -0.112853,-0.67274 -0.06496,-1.01074 0.06459,-0.45592 0.257813,-0.61456 0.748528,-0.61456 h 0.661458 v 0.92604 0.92604 l -0.596495,0.0847 c -0.347782,0.0494 -0.659887,-0.0805 -0.748527,-0.31149 z m 32.749817,1.23562 c 0.84939,-0.81377 0.98396,-1.67029 0.26241,-1.67029 -0.6702,0 -2.00916,1.45469 -1.81196,1.96858 0.2303,0.60014 0.7077,0.50824 1.54955,-0.29829 z m -86.459766,0.0212 c 0.531797,-0.20407 0.548516,-0.89773 0.02164,-0.89773 -0.286631,0 -0.396875,-0.29398 -0.396875,-1.05834 0,-0.76435 0.110244,-1.05833 0.396875,-1.05833 0.218282,0 0.396875,-0.17859 0.396875,-0.39688 0,-0.21828 -0.178593,-0.39687 -0.396875,-0.39687 -0.220485,0 -0.396875,-0.23519 -0.396875,-0.52917 0,-0.35277 -0.176389,-0.52916 -0.529166,-0.52916 -0.352777,0 -0.529167,0.17639 -0.529167,0.52916 0,0.29398 -0.17639,0.52917 -0.396875,0.52917 -0.218281,0 -0.396875,0.1228 -0.396875,0.27289 0,0.15009 0.178594,0.34142 0.396875,0.42518 0.277186,0.10637 0.396875,0.53876 0.396875,1.43376 0,0.94131 0.122904,1.35304 0.463021,1.55114 0.565661,0.32947 0.470247,0.31716 0.970547,0.12518 z m 3.443999,-0.0974 c 1.009915,-0.38396 0.822428,-0.75927 -0.425233,-0.85123 -1.682752,-0.12402 -1.639252,-0.74281 0.05222,-0.74281 h 1.37365 l -0.178387,-0.72761 c -0.253188,-1.03271 -0.782725,-1.47725 -1.759694,-1.47725 -1.984536,0 -2.532133,3.04494 -0.681677,3.79051 0.765468,0.30841 0.829145,0.30874 1.619125,0.008 z m -1.570275,-2.65238 c 0.08994,-0.14552 0.387593,-0.26458 0.661458,-0.26458 0.273865,0 0.571521,0.11906 0.661458,0.26458 0.09566,0.15478 -0.178845,0.26459 -0.661458,0.26459 -0.482613,0 -0.757119,-0.10981 -0.661458,-0.26459 z m 13.741108,2.65238 c 1.009914,-0.38396 0.822428,-0.75927 -0.425233,-0.85123 -1.664399,-0.12266 -1.644751,-0.74281 0.02355,-0.74281 h 1.344964 v -0.49986 c 0,-0.64822 -0.764577,-1.52386 -1.52327,-1.74455 -0.449934,-0.13087 -0.792514,0.0216 -1.389062,0.61812 -0.435509,0.43551 -0.791834,0.97183 -0.791834,1.19184 0,0.81159 0.53839,1.77837 1.120632,2.01228 0.789069,0.317 0.847614,0.31758 1.640268,0.0162 z m -1.570276,-2.65238 c 0.08994,-0.14552 0.387594,-0.26458 0.661459,-0.26458 0.273865,0 0.571521,0.11906 0.661458,0.26458 0.09566,0.15478 -0.178845,0.26459 -0.661458,0.26459 -0.482614,0 -0.757119,-0.10981 -0.661459,-0.26459 z m 9.674685,2.63653 c 0.793544,-0.4247 0.605867,-0.78444 -0.409228,-0.78444 h -0.921001 l -0.166878,-0.6649 c -0.217438,-0.86634 0.285628,-1.45177 1.247526,-1.45177 0.896636,0 1.049107,-0.65678 0.203792,-0.87784 -2.005126,-0.52435 -3.305471,2.07013 -1.720738,3.43325 0.807217,0.69435 1.032645,0.73846 1.766527,0.3457 z m 5.332846,-0.0383 0.735177,0.056 v -1.5856 -1.5856 l -0.652981,-0.42785 c -0.747411,-0.48973 -2.070642,-0.21813 -2.200669,0.45168 -0.05801,0.29885 0.141377,0.36374 0.859896,0.27986 1.24225,-0.14503 1.200409,0.31907 -0.05677,0.62963 l -0.992187,0.2451 -0.08308,0.86216 -0.08308,0.86216 0.612243,0.23125 c 0.336735,0.12719 0.727901,0.16239 0.869257,0.0782 0.141356,-0.0842 0.587841,-0.12784 0.992187,-0.097 z m -1.588349,-1.0516 c 0.056,-0.168 0.363577,-0.40229 0.683506,-0.52063 l 0.581687,-0.21518 v 0.52063 c 0,0.38345 -0.180121,0.52065 -0.683506,0.52065 -0.399058,0 -0.641133,-0.12713 -0.581687,-0.30547 z m 7.945922,1.06814 0.727604,0.0395 v -2.80173 -2.80173 l -0.463021,0.0877 c -0.298402,0.0565 -0.491329,0.37698 -0.542642,0.90134 l -0.07962,0.81364 H 63.28016 c -1.007369,0 -1.538018,0.53269 -1.734056,1.74072 l -0.154881,0.95443 0.704688,0.70469 c 0.481396,0.48139 0.847675,0.64405 1.155944,0.51332 0.248189,-0.10525 0.778676,-0.1736 1.178859,-0.15188 z m -1.822776,-1.16014 c -0.08389,-0.21861 -0.07788,-0.69486 0.01333,-1.05833 0.121126,-0.48262 0.342921,-0.66087 0.822283,-0.66087 h 0.656418 v 1.05833 1.05834 h -0.669761 c -0.368372,0 -0.738399,-0.17886 -0.822285,-0.39747 z m 6.10503,1.19776 c 1.009915,-0.38396 0.822428,-0.75927 -0.425233,-0.85123 -1.682752,-0.12402 -1.639252,-0.74281 0.05222,-0.74281 h 1.37365 l -0.178387,-0.72761 c -0.253188,-1.03271 -0.782725,-1.47725 -1.759694,-1.47725 -1.984536,0 -2.532133,3.04494 -0.681677,3.79051 0.765468,0.30841 0.829145,0.30874 1.619125,0.008 z m -1.570275,-2.65238 c 0.08994,-0.14552 0.387593,-0.26458 0.661458,-0.26458 0.273865,0 0.571521,0.11906 0.661458,0.26458 0.09566,0.15478 -0.178845,0.26459 -0.661458,0.26459 -0.482613,0 -0.757119,-0.10981 -0.661458,-0.26459 z m 13.211941,2.65238 c 1.009915,-0.38396 0.822428,-0.75927 -0.425233,-0.85123 -1.664398,-0.12266 -1.64475,-0.74281 0.02355,-0.74281 h 1.344965 v -0.49986 c 0,-0.64822 -0.764577,-1.52386 -1.52327,-1.74455 -0.449935,-0.13087 -0.792515,0.0216 -1.389063,0.61812 -0.435509,0.43551 -0.791834,0.97183 -0.791834,1.19184 0,0.81159 0.53839,1.77837 1.120632,2.01228 0.78907,0.317 0.847614,0.31758 1.640269,0.0162 z m -1.570275,-2.65238 c 0.08994,-0.14552 0.387593,-0.26458 0.661458,-0.26458 0.273865,0 0.571521,0.11906 0.661458,0.26458 0.09566,0.15478 -0.178845,0.26459 -0.661458,0.26459 -0.482613,0 -0.757118,-0.10981 -0.661458,-0.26459 z m 9.857406,2.62866 c 2.234504,-0.77895 1.311053,-4.31947 -0.993865,-3.81049 -1.837775,0.40582 -2.155939,3.13676 -0.445725,3.82582 0.31791,0.12809 0.590016,0.24043 0.604681,0.24966 0.01466,0.009 0.390375,-0.11002 0.834909,-0.26499 z m -1.413169,-1.13649 c -0.08344,-0.21744 -0.11253,-0.6719 -0.06464,-1.0099 0.06901,-0.4871 0.251687,-0.61456 0.880819,-0.61456 h 0.79375 v 0.92604 0.92604 l -0.72911,0.0839 c -0.462677,0.0532 -0.784545,-0.0606 -0.880819,-0.31149 z m 5.997194,1.15367 c 0.133617,0 0.242943,-0.17105 0.242943,-0.38011 0,-0.23545 -0.32726,-0.41167 -0.859896,-0.46303 l -0.859896,-0.0829 v -0.92604 -0.92604 l 0.859896,-0.0829 c 0.944229,-0.091 1.177655,-0.70662 0.365676,-0.96433 -0.676273,-0.21464 -1.795214,0.24901 -2.135526,0.88489 -0.426152,0.79627 -0.335995,2.01652 0.18235,2.46807 0.593863,0.51734 1.164313,0.72428 1.609141,0.58374 0.193802,-0.0612 0.461692,-0.11133 0.595312,-0.11133 z m 5.205561,-0.0172 c 2.234499,-0.77895 1.31105,-4.31947 -0.99387,-3.81049 -1.837773,0.40582 -2.155937,3.13676 -0.44572,3.82582 0.31791,0.12809 0.59001,0.24043 0.60468,0.24966 0.0147,0.009 0.39037,-0.11002 0.83491,-0.26499 z m -1.41317,-1.13649 c -0.0834,-0.21744 -0.11253,-0.6719 -0.0646,-1.0099 0.069,-0.4871 0.25168,-0.61456 0.88082,-0.61456 h 0.79375 v 0.92604 0.92604 l -0.72911,0.0839 c -0.46268,0.0532 -0.78455,-0.0606 -0.88082,-0.31149 z m -75.251528,-1.51425 c 0,-2.0164 -0.08076,-2.64111 -0.330729,-2.55825 -0.226898,0.0752 -0.354504,0.9128 -0.406455,2.66789 l -0.07573,2.55824 h 0.406455 0.406455 z m 2.168986,1.27881 0.07997,-1.38906 0.595312,-0.0846 0.595313,-0.0845 v 1.47361 1.47361 h 0.529166 0.529167 v -1.58141 -1.58139 l -0.649822,-0.42578 c -0.368446,-0.24142 -0.794792,-0.33619 -0.984618,-0.21887 -0.184134,0.1138 -0.66562,0.1817 -1.069967,0.15089 l -0.735176,-0.056 v 1.85629 1.85629 h 0.515339 0.51534 z m 10.795597,-1.40846 v -2.79753 l -0.463021,0.0887 -0.463021,0.0887 -0.0754,2.70888 -0.0754,2.70888 h 0.538424 0.538422 z m 2.116666,0.94544 v -1.85208 h -0.529166 -0.529167 v 1.85208 1.85209 h 0.529167 0.529166 z m 10.371069,0.46302 0.07997,-1.38906 0.595313,-0.0846 0.595312,-0.0845 v 1.47361 1.47361 h 0.529167 0.529167 v -1.58141 -1.58139 l -0.649822,-0.42578 c -0.368446,-0.24142 -0.794793,-0.33619 -0.984618,-0.21887 -0.184134,0.1138 -0.66562,0.1817 -1.069967,0.15089 l -0.735176,-0.056 v 1.85629 1.85629 h 0.515339 0.51534 z m 7.620597,-0.46302 v -1.85208 h -0.529166 -0.529167 v 1.85208 1.85209 h 0.529167 0.529166 z m 18.57489,0.0709 0.07823,-1.7812 1.114899,1.7812 c 0.782621,1.25033 1.275463,1.78119 1.653646,1.78119 h 0.538747 v -2.66524 -2.66523 l -0.463021,0.0879 c -0.365617,0.0694 -0.49085,0.44201 -0.595312,1.77115 l -0.132292,1.68324 -1.113981,-1.75175 c -0.777494,-1.22263 -1.27699,-1.75176 -1.653645,-1.75176 h -0.539666 v 2.64583 2.64584 h 0.517078 0.517078 z m 21.641775,-0.0709 V 167.6724 H 94.527066 93.9979 v 1.85208 1.85209 h 0.529166 0.529167 z m 31.749997,-3.10291 c 0,-0.70998 -0.82402,-0.67125 -1.60329,0.0753 -0.81253,0.77845 -1.01221,1.57425 -0.44723,1.78242 0.39534,0.14566 2.05052,-1.35392 2.05052,-1.85776 z m -90.076372,0.16944 c 0.09778,-0.1582 0.05032,-0.41509 -0.105462,-0.57087 -0.330174,-0.33017 -1.189099,0.23476 -0.94859,0.62391 0.201382,0.32584 0.839743,0.29372 1.054052,-0.053 z m 18.10971,-0.0936 c 0,-0.5173 -0.51286,-0.79921 -0.846666,-0.46541 -0.149265,0.14927 -0.191397,0.40083 -0.09362,0.55903 0.259347,0.41964 0.940289,0.35184 0.940289,-0.0936 z m 40.330428,0.14666 c 0.240509,-0.38915 -0.618416,-0.95408 -0.94859,-0.62391 -0.155778,0.15578 -0.203237,0.41267 -0.105462,0.57087 0.214309,0.34676 0.85267,0.37888 1.054052,0.053 z m -21.949028,-3.45803 c 0.08601,-0.13917 0.33116,-0.18596 0.544782,-0.10399 0.554252,0.21269 0.530818,-1.84402 -0.02737,-2.40221 -0.512736,-0.51274 -0.67121,-0.51655 -1.319593,-0.0318 l -0.513591,0.38399 0.713238,-0.0533 c 0.86624,-0.0647 1.117552,0.44135 0.27837,0.56053 -0.844621,0.11994 -1.240864,0.95123 -0.707601,1.4845 0.474657,0.47465 0.806434,0.52682 1.031769,0.16222 z m -0.654317,-0.64216 c 0,-0.20131 0.238125,-0.42828 0.529166,-0.50439 0.59594,-0.15585 0.685769,0.0788 0.211667,0.55291 -0.422653,0.42265 -0.740833,0.40182 -0.740833,-0.0485 z m 3.228115,0.42782 c -0.420754,-0.14025 -0.409895,-1.82676 0.01302,-2.02413 0.264583,-0.12347 0.264583,-0.18521 0,-0.30868 -0.181901,-0.0849 -0.330729,-0.32301 -0.330729,-0.52916 1.3e-5,-0.20616 -0.119049,-0.37483 -0.26457,-0.37483 -0.145521,0 -0.264583,0.17859 -0.264583,0.39687 0,0.21829 -0.142875,0.39688 -0.3175,0.39688 -0.246944,0 -0.246944,0.0706 0,0.3175 0.174625,0.17462 0.3175,0.76001 0.3175,1.30087 0,0.94363 0.375216,1.38567 0.91301,1.07561 0.14192,-0.0818 0.113094,-0.19118 -0.06614,-0.25093 z m 2.857301,-0.72398 c 0,-1.15435 -0.734843,-2.03306 -1.521354,-1.81922 -0.819748,0.22289 -0.755915,0.67971 0.06615,0.47338 0.490918,-0.12321 0.661458,-0.061 0.661458,0.24114 0,0.22394 -0.25573,0.44521 -0.56829,0.49171 -0.312561,0.0465 -0.699514,0.29988 -0.859896,0.56306 -0.397873,0.6529 0.341839,1.19257 1.418111,1.03461 l 0.803825,-0.11798 z m -1.5875,0.28735 c 0,-0.23041 0.188516,-0.41892 0.418923,-0.41892 0.23041,0 0.371795,0.14138 0.314193,0.31419 -0.163531,0.4906 -0.733116,0.57197 -0.733116,0.10473 z m 5.761961,0.49212 c 0.828775,-0.5805 0.790572,-1.82447 -0.07342,-2.39058 l -0.661459,-0.4334 -0.661458,0.4334 c -0.863992,0.56611 -0.902195,1.81008 -0.07342,2.39058 0.323418,0.22653 0.654116,0.41188 0.734877,0.41188 0.08076,0 0.411459,-0.18535 0.734878,-0.41188 z M 81.6154,162.5924 c -0.753655,-0.75366 0.06994,-2.20117 0.873125,-1.53458 0.218281,0.18115 0.396875,0.52911 0.396875,0.77322 0,0.43255 -0.475514,1.07886 -0.79375,1.07886 -0.08731,0 -0.301625,-0.14288 -0.47625,-0.3175 z m 10.419765,0.58208 c 0.267896,0 0.375235,-0.33792 0.375235,-1.18131 0,-1.25647 -0.584377,-1.89437 -1.436042,-1.56756 -0.612899,0.2352 -0.506029,0.63598 0.150106,0.56294 0.31138,-0.0347 0.616095,0.0772 0.677143,0.24862 0.06436,0.1807 -0.200345,0.34745 -0.630029,0.39687 -0.460311,0.053 -0.775218,0.26545 -0.831286,0.56097 -0.117367,0.61863 0.461917,1.30861 0.943512,1.12381 0.20687,-0.0794 0.544981,-0.14434 0.751361,-0.14434 z m -1.030364,-0.43546 c -0.319516,-0.31952 -0.196993,-0.55721 0.362672,-0.70356 0.398555,-0.10423 0.522706,-0.0297 0.463021,0.27794 -0.09107,0.46941 -0.546925,0.70439 -0.825693,0.42562 z m 5.572786,0.36097 c 0.245934,0.0882 0.330724,-0.39584 0.330724,-1.88783 0,-1.16123 -0.11145,-2.00643 -0.264578,-2.00643 -0.145521,0 -0.264583,0.30568 -0.264583,0.67929 v 0.67929 l -0.515634,-0.16366 c -0.628044,-0.19933 -1.601033,0.68243 -1.601033,1.45092 0,0.79218 0.964599,1.65404 1.527418,1.36473 0.251325,-0.12919 0.605785,-0.18153 0.787686,-0.11631 z m -1.409848,-0.54572 c -0.246523,-0.64243 -0.01106,-1.62875 0.388824,-1.62875 0.588383,0 1.001805,0.84736 0.670038,1.37332 -0.389038,0.61675 -0.875204,0.73403 -1.058862,0.25543 z m 4.269692,0.48386 0.51359,-0.40093 -0.68109,0.15336 c -0.44666,0.10057 -0.79932,0.0109 -1.02458,-0.26053 l -0.3435,-0.41388 h 0.95844 0.95844 V 161.464 c 0,-0.94214 -0.89987,-1.36462 -1.73753,-0.81576 -0.84658,0.55469 -0.87583,1.80449 -0.0557,2.37895 0.7242,0.50725 0.77563,0.50765 1.41191,0.0109 z m -1.15599,-1.87933 c 0.2355,-0.2355 0.55867,-0.34754 0.71815,-0.24897 0.52538,0.3247 0.30252,0.67715 -0.42818,0.67715 h -0.71815 z m -29.948123,1.35422 c 0,-0.51382 0.135818,-0.66145 0.608541,-0.66145 0.758195,0 1.243542,-0.4647 1.243542,-1.19063 0,-0.79367 -0.502801,-1.19062 -1.508125,-1.19062 h -0.873125 v 1.85208 c 0,1.05833 0.113392,1.85208 0.264583,1.85208 0.145521,0 0.264584,-0.29765 0.264584,-0.66146 z m 0,-1.85208 v -0.69826 l 0.595312,0.0846 c 0.390742,0.0555 0.595312,0.26638 0.595312,0.61371 0,0.34733 -0.20457,0.55822 -0.595312,0.61372 l -0.595312,0.0845 z m 2.910416,0.52917 c 0,-1.14653 -0.111712,-1.98438 -0.264583,-1.98438 -0.152871,0 -0.264584,0.83785 -0.264584,1.98438 0,1.14652 0.111713,1.98437 0.264584,1.98437 0.152871,0 0.264583,-0.83785 0.264583,-1.98437 z m 8.73125,0.97896 c 0,-0.55298 0.142875,-1.1483 0.3175,-1.32292 0.246943,-0.24694 0.246943,-0.3175 0,-0.3175 -0.468138,0 -0.385869,-0.54883 0.145521,-0.9708 l 0.46302,-0.36767 -0.661458,0.0739 c -0.455851,0.051 -0.687739,0.25897 -0.746006,0.66924 -0.0465,0.32742 -0.219141,0.59531 -0.383646,0.59531 -0.212185,0 -0.206838,0.0923 0.01839,0.3175 0.174625,0.17462 0.3175,0.76994 0.3175,1.32292 0,0.55298 0.119062,1.00541 0.264583,1.00541 0.145521,0 0.264583,-0.45243 0.264583,-1.00541 z m 4.497916,0.0546 c 0,-0.7283 0.123838,-0.9832 0.529167,-1.08919 0.291041,-0.0761 0.529166,-0.23653 0.529166,-0.35649 0,-0.35133 -0.478152,-0.54594 -0.65165,-0.26521 -0.08747,0.14154 -0.333827,0.19027 -0.547449,0.1083 -0.310232,-0.11905 -0.3884,0.1229 -0.3884,1.20218 0,0.74317 0.119062,1.35122 0.264583,1.35122 0.145521,0 0.264583,-0.42786 0.264583,-0.95081 z M 86.375916,162.05 c 0.05694,-0.78699 0.200474,-1.12448 0.478234,-1.12448 0.27776,0 0.421293,0.33749 0.478234,1.12448 0.05372,0.7425 0.205841,1.12448 0.447808,1.12448 0.241966,0 0.394086,-0.38198 0.447807,-1.12448 0.05694,-0.78699 0.200475,-1.12448 0.478234,-1.12448 0.27776,0 0.421294,0.33749 0.478235,1.12448 0.107923,1.49165 0.580099,1.44851 0.580099,-0.053 0,-1.32753 -0.545693,-1.88431 -1.399143,-1.42755 -0.318225,0.1703 -0.595424,0.17066 -0.800582,0.001 -0.172601,-0.14271 -0.641239,-0.19663 -1.041421,-0.1198 l -0.727604,0.13967 v 1.29208 c 0,1.58633 0.467675,1.72145 0.580099,0.16759 z M 234.22706,148.6224 v -1.05833 H 97.305191 -39.616678 v 1.05833 1.05833 H 97.305191 234.22706 Z M 11.243613,120.11975 c 1.131004,-1.12437 2.056374,-2.19593 2.056374,-2.38125 0,-0.23395 -0.466892,-0.33694 -1.527562,-0.33694 h -1.527561 l -2.0769212,2.08918 c -1.176229,1.18317 -1.9986359,2.21584 -1.8964059,2.38125 0.09928,0.16064 0.7959299,0.29207 1.5481059,0.29207 h 1.367594 z m 9.004443,-2.65472 c 2.581479,-2.58447 4.693597,-4.84666 4.693597,-5.02709 0,-0.23282 -0.596,-0.32804 -2.053277,-0.32804 h -2.053278 l -4.727472,4.73295 c -2.75689,2.76009 -4.6517,4.85556 -4.545692,5.02709 0.106135,0.17172 0.974706,0.29412 2.087155,0.29412 h 1.90537 z m 6.413389,1.52403 c 1.741702,-1.74625 3.349045,-3.175 3.571874,-3.175 0.22283,0 1.830173,1.42875 3.571875,3.175 l 3.166729,3.175 h 1.922365 1.922364 v -0.4592 c 0,-0.25256 -1.45673,-1.91943 -3.237174,-3.70416 l -3.237177,-3.24497 h -4.10119 -4.101192 l -3.244966,3.23718 c -1.784731,1.78044 -3.244966,3.44732 -3.244966,3.70416 v 0.46699 h 1.922364 1.922365 z m 19.196766,2.61879 c 0.163724,-0.30592 0.23859,-0.78217 0.166372,-1.05833 l -0.131307,-0.50212 h 1.695021 1.695021 v 0.74083 c 0,0.88866 0.428864,1.37583 1.211146,1.37583 0.768078,0 1.261039,-0.64076 1.108171,-1.44043 -0.07837,-0.40995 0.015,-0.70314 0.253005,-0.79447 0.207462,-0.0796 0.337235,-0.35346 0.288382,-0.60857 l -0.08882,-0.46382 -3.962509,-0.13229 -3.962508,-0.13229 -0.08735,-0.45621 -0.08736,-0.45621 4.178224,-0.073 4.178223,-0.073 0.178638,-1.05834 c 0.09825,-0.58208 0.220488,-1.77271 0.271635,-2.64583 l 0.093,-1.5875 -5.735465,-0.0713 -5.735463,-0.0713 -0.680683,-0.80894 c -0.374374,-0.44492 -0.68068,-1.00982 -0.68068,-1.25534 0,-0.24552 -1.584603,-2.02774 -3.521339,-3.96049 l -3.521342,-3.51409 -2.101054,0.0782 -2.101056,0.0782 -0.07319,4.2314 -0.07319,4.2314 -1.238152,1.25705 c -0.853157,0.86618 -1.153019,1.34218 -0.964371,1.53083 0.1705,0.1705 1.713182,0.24598 4.089465,0.20009 l 3.815689,-0.0737 0.07481,-2.97656 c 0.04115,-1.63711 0.165184,-2.97656 0.27564,-2.97656 0.110458,0 0.726659,0.53578 1.36934,1.19062 0.922967,0.94044 1.354289,1.19063 2.052611,1.19063 h 0.8841 l -0.255296,0.45619 c -0.29667,0.53012 0.0651,1.39589 0.583284,1.39589 0.877972,0 1.989794,1.76961 2.904493,4.62289 0.511868,1.59671 1.059402,2.94602 1.216742,2.99846 0.157339,0.0524 0.218135,0.36605 0.135099,0.69689 -0.316593,1.26141 1.671264,2.05822 2.283026,0.91513 z m 57.219059,0.25301 c 0.31786,-0.16677 0.67697,-0.47128 0.79803,-0.67671 l 0.22012,-0.37349 0.5927,0.63953 0.5927,0.63953 1.89916,0.0119 1.89917,0.0119 v -2.22368 -2.22367 h -0.91221 -0.91222 l -0.08,1.38906 c -0.0589,1.02279 -0.18462,1.38906 -0.47685,1.38906 -0.29222,0 -0.41796,-0.36627 -0.47685,-1.38906 l -0.08,-1.38906 h -0.91221 -0.91222 v 1.35236 1.35236 l -0.8894,-0.16685 c -0.62107,-0.11651 -0.98611,-0.0503 -1.20996,0.21941 -0.58003,0.69889 -1.51891,-0.13167 -1.17169,-1.03652 0.12055,-0.31415 0.44665,-0.36126 1.5792,-0.22816 l 1.42727,0.16775 v -0.4141 c 0,-0.22775 -0.32742,-0.67248 -0.7276,-0.98827 -0.91992,-0.72593 -2.75008,-0.60206 -3.595499,0.24336 -0.86027,0.86027 -0.77164,2.54749 0.17668,3.3632 0.808919,0.6958 2.198919,0.8405 3.171629,0.33017 z m 10.53663,-0.20474 0.62462,-0.50794 0.43021,0.38696 c 0.53087,0.4775 2.09013,0.75099 2.99167,0.52472 0.96904,-0.24321 1.59698,-1.28627 1.20984,-2.00964 -0.16537,-0.30901 -0.56079,-0.66664 -0.8787,-0.79473 l -0.57802,-0.23288 1.12448,-0.0168 1.12448,-0.0168 v 1.31361 c 0,1.46759 0.38815,1.86139 1.83469,1.86139 0.55776,0 0.81115,-0.12866 0.81115,-0.41187 v -0.41188 l 0.58803,0.41188 c 0.67785,0.47478 1.9436,0.54612 2.20434,0.12424 0.12801,-0.20713 0.25828,-0.20713 0.46541,0 0.15819,0.1582 0.62101,0.28763 1.02846,0.28763 h 0.74084 v -1.73181 -1.73182 l -0.64943,-0.64943 c -0.46363,-0.46363 -0.93675,-0.64832 -1.65365,-0.64554 -1.99018,0.008 -3.16808,1.20257 -1.74077,1.76582 l 0.73656,0.29066 -0.58601,0.0281 c -0.3223,0.0155 -0.71344,0.26627 -0.8692,0.55731 -0.43809,0.81857 -1.05833,0.66351 -1.05833,-0.26459 0,-0.52916 0.13229,-0.79375 0.39687,-0.79375 0.24694,0 0.39688,-0.24988 0.39688,-0.66145 0,-0.41158 -0.14994,-0.66146 -0.39688,-0.66146 -0.26458,0 -0.39687,-0.26459 -0.39687,-0.79375 0,-0.43656 -0.11347,-0.79375 -0.25214,-0.79375 -0.63813,0 -1.59995,0.66175 -1.59995,1.1008 0,0.26768 -0.17859,0.4867 -0.39687,0.4867 -0.21828,0 -0.39688,0.12581 -0.39688,0.27958 0,0.15672 -0.25843,0.0986 -0.58804,-0.13229 -0.94894,-0.66466 -2.4935,-0.52939 -3.31306,0.29017 -0.42649,0.42649 -0.7427,0.58008 -0.80563,0.39131 -0.15776,-0.47331 -1.52085,-1.09336 -2.40358,-1.09336 -1.20079,0 -2.41469,1.15115 -2.41469,2.28988 0,1.72059 0.76672,2.42248 2.68267,2.45585 0.57713,0.0101 1.21311,-0.18672 1.5875,-0.49117 z m -2.32642,-1.1457 c -0.0676,-0.10914 0.59851,-0.19844 1.48022,-0.19844 h 1.60312 l 0.0209,-0.7276 c 0.0124,-0.43163 0.0837,-0.56616 0.17521,-0.33073 0.21959,0.56471 0.90585,1.03941 1.52369,1.05397 0.29104,0.007 0.66672,0.0999 0.83485,0.20685 0.16812,0.10691 -1.00399,0.19439 -2.6047,0.19439 -1.60071,0 -2.96568,-0.0893 -3.03328,-0.19844 z m 12.98547,0.0981 c 0.0791,-0.12795 0.37486,-0.29307 0.65728,-0.36693 0.3612,-0.0945 0.47174,-0.0255 0.37269,0.23265 -0.0774,0.20181 -0.37322,0.36693 -0.65728,0.36693 -0.28406,0 -0.45177,-0.10469 -0.37269,-0.23265 z m -12.81255,-1.61944 c 0,-0.14552 0.17157,-0.26458 0.38126,-0.26458 0.20969,0 0.45484,0.11906 0.54478,0.26458 0.0899,0.14553 -0.0816,0.26459 -0.38126,0.26459 -0.29963,0 -0.54478,-0.11906 -0.54478,-0.26459 z m 12.83229,0 c 0.0899,-0.14552 0.34211,-0.26458 0.5604,-0.26458 0.21828,0 0.32329,0.11906 0.23335,0.26458 -0.0899,0.14553 -0.34211,0.26459 -0.5604,0.26459 -0.21828,0 -0.32329,-0.11906 -0.23335,-0.26459 z m -7.85482,-0.18073 c 0.191,-0.0764 0.4192,-0.067 0.50712,0.0209 0.0879,0.0879 -0.0683,0.15045 -0.34726,0.13897 -0.30823,-0.0127 -0.37092,-0.0754 -0.15986,-0.15986 z m 15.44839,1.83438 c 0.0595,-1.14066 0.17866,-1.52135 0.47622,-1.52135 0.29756,0 0.41673,0.38069 0.47622,1.52135 l 0.0794,1.52135 h 0.89963 0.89963 l 0.0794,-1.45825 c 0.0436,-0.80204 0.19842,-1.45825 0.34394,-1.45825 0.14552,0 0.30029,0.65621 0.34393,1.45825 l 0.0794,1.45825 h 0.91284 0.91283 v -1.89739 c 0,-2.53375 -0.81796,-3.43717 -2.36326,-2.61015 -0.31479,0.16847 -0.7444,0.15379 -1.2665,-0.0433 -0.44587,-0.16829 -1.00885,-0.20633 -1.29216,-0.0873 -0.27612,0.11602 -0.94852,0.18592 -1.49422,0.15534 l -0.99219,-0.0556 v 2.26919 2.26919 h 0.91284 0.91284 z m 10.09783,0.97298 c 1.10132,-0.86629 0.88554,-1.13412 -0.75807,-0.94095 -0.91518,0.10756 -1.45521,0.072 -1.45521,-0.0959 0,-0.14712 0.65306,-0.2669 1.45521,-0.2669 h 1.45521 v -0.76444 c 0,-1.17802 -0.75998,-1.91276 -2.13929,-2.06823 l -1.19236,-0.1344 -0.84772,0.71331 c -1.32326,1.11344 -1.15473,2.98118 0.34291,3.80032 0.86779,0.47465 2.37545,0.35802 3.13932,-0.24285 z m -2.00161,-2.67954 c 0.24694,-0.24695 0.38806,-0.24695 0.635,0 0.24694,0.24694 0.17639,0.3175 -0.3175,0.3175 -0.49389,0 -0.56444,-0.0706 -0.3175,-0.3175 z m 4.86836,1.70656 c 0.0595,-1.14066 0.17866,-1.52135 0.47622,-1.52135 0.29757,0 0.41674,0.38069 0.47623,1.52135 l 0.0793,1.52135 h 0.91284 0.91283 l 0.036,-1.12447 c 0.0198,-0.61847 0.086,-0.86903 0.14708,-0.5568 0.19529,0.99838 1.07795,1.54898 2.48316,1.54898 0.95857,0 1.43092,-0.14313 1.84769,-0.5599 l 0.5599,-0.5599 0.62604,0.62605 c 0.71092,0.71091 2.19833,0.8389 3.29594,0.2836 0.51256,-0.25931 0.66146,-0.53957 0.66146,-1.24506 0,-0.70548 -0.1489,-0.98574 -0.66146,-1.24505 l -0.66146,-0.33465 0.5797,-0.004 c 1.24758,-0.008 0.76563,-1.1451 -0.63451,-1.49651 -0.89847,-0.2255 -2.46918,0.18983 -2.81538,0.74445 -0.48253,0.77306 0.18339,1.73944 1.42993,2.0751 1.40846,0.37926 1.25837,0.50165 -0.41182,0.33582 l -1.32292,-0.13135 -0.0196,-0.89188 c -0.0108,-0.49052 -0.23548,-1.13042 -0.49934,-1.42198 -1.1309,-1.24963 -3.90173,-0.80603 -4.27584,0.68455 l -0.17846,0.71105 -0.2915,-0.89621 c -0.31986,-0.98336 -1.33528,-1.53189 -2.17878,-1.17697 -0.27169,0.11432 -0.94047,0.18283 -1.48617,0.15225 l -0.99219,-0.0556 v 2.26919 2.2692 h 0.91284 0.91284 l 0.0794,-1.52136 z m 4.97414,-0.8599 c 0,-0.6024 0.12074,-0.79375 0.50086,-0.79375 0.56114,0 0.88412,0.58875 0.65316,1.19063 -0.0838,0.21828 -0.37769,0.39687 -0.65316,0.39687 -0.38012,0 -0.50086,-0.19134 -0.50086,-0.79375 z m 5.24206,-0.97448 c 0.19099,-0.0764 0.4192,-0.067 0.50712,0.0209 0.0879,0.0879 -0.0684,0.15045 -0.34727,0.13897 -0.30823,-0.0127 -0.37092,-0.0754 -0.15985,-0.15986 z M 14.828585,115.2849 c 0.109831,-2.17772 0.212958,-2.32156 1.073386,-1.49722 0.403844,0.38691 0.841142,0.70347 0.971772,0.70347 0.34063,0 1.982494,-1.63677 1.982494,-1.97634 0,-0.15677 -0.930799,-1.21038 -2.068444,-2.34135 l -2.068441,-2.05631 -2.098746,0.0781 -2.098744,0.0781 -0.07353,3.95713 c -0.04044,2.17641 -0.01249,4.11622 0.06214,4.31068 0.100795,0.26267 0.6638,0.33367 2.190197,0.2762 l 2.054526,-0.0773 z m 80.627124,-1.35117 1.188024,-0.29915 v -1.68838 c 0,-0.92861 -0.03832,-1.68839 -0.08516,-1.68839 -0.04684,0 -0.646806,0.19138 -1.333262,0.42528 -0.850593,0.28982 -1.871482,0.39379 -3.20539,0.32643 l -1.957286,-0.0988 -0.678202,-0.63714 c -1.332801,-1.2521 -1.07501,-1.33864 3.987559,-1.33864 h 4.665759 l -0.1311,-1.83225 c -0.1751,-2.44732 -1.2128,-4.3366 -2.990029,-5.44379 l -1.274101,-0.79375 h -2.673643 -2.673646 l -1.287642,0.6626 c -1.602261,0.82456 -2.772714,2.24062 -3.216738,3.89176 l -0.340569,1.26643 -0.01786,-1.23955 c -0.02313,-1.60604 -0.385461,-2.52805 -1.411412,-3.59168 -1.75097,-1.81527 -5.073777,-1.81755 -7.003354,-0.005 l -0.598924,0.56266 v -3.485704 -3.48571 h -2.38125 -2.38125 v 9.260414 9.26042 h 2.38125 2.38125 v -3.58037 c 0,-4.28162 0.273225,-5.20264 1.681231,-5.66732 1.083067,-0.35744 1.813737,-0.0908 2.33811,0.85323 0.202594,0.36474 0.367106,2.07619 0.431776,4.49186 l 0.104476,3.9026 h 2.220119 2.220121 l 0.02708,-2.84427 c 0.01712,-1.79754 0.0982,-2.55216 0.220321,-2.05052 0.422815,1.73678 2.017598,3.71839 3.73013,4.63491 1.465024,0.78406 5.418685,0.89763 8.063608,0.23163 z m -6.360671,-8.37227 c 0.391219,-1.56756 1.652469,-2.17793 3.180842,-1.53934 0.510548,0.21332 0.92827,0.42449 0.92827,0.46925 0,0.0448 0.110752,0.46756 0.246113,0.93955 l 0.246115,0.85814 H 91.304915 88.91345 Z m -22.084637,8.30886 1.455208,-0.30521 0.0763,-2.30472 0.0763,-2.30472 -1.26692,0.56169 c -1.757776,0.77932 -4.740722,0.95085 -6.284254,0.36136 -2.310455,-0.88236 -3.479858,-2.99303 -3.249342,-5.86476 0.155456,-1.93664 0.713914,-3.027 2.140468,-4.179134 l 1.017543,-0.8218 2.42204,0.005 2.422041,0.005 1.113938,0.59077 c 0.612667,0.32492 1.178213,0.590774 1.256771,0.590774 0.07856,0 0.142833,-0.996564 0.142833,-2.214574 v -2.21457 l -1.256771,-0.36512 c -0.763379,-0.22177 -2.503236,-0.36345 -4.431771,-0.36089 l -3.175,0.004 -1.66462,0.76444 c -2.025976,0.93038 -4.034647,3.00958 -4.675929,4.840114 -0.243964,0.69639 -0.510735,2.17435 -0.59283,3.28435 -0.359987,4.86746 2.239833,8.63334 6.807501,9.86078 1.718223,0.46173 5.623912,0.49633 7.666503,0.0679 z m 64.068299,-0.48081 0.91601,-0.69867 0.25003,0.56942 0.25003,0.56943 1.98438,0.0763 1.98437,0.0764 -0.0883,-4.82272 -0.0883,-4.82271 -0.55001,-1.17011 c -0.59523,-1.2663 -2.05001,-2.48244 -3.56941,-2.98389 -1.11106,-0.366684 -5.05219,-0.188504 -6.35346,0.28724 l -0.85989,0.31438 v 1.94499 1.94499 l 0.90193,-0.37685 c 3.16468,-1.32228 5.98164,-0.85952 5.97621,0.98177 -8e-4,0.26 -0.59631,0.35346 -2.35261,0.36921 l -2.35158,0.0211 -1.51157,0.73955 -1.51157,0.73954 -0.49564,1.09146 c -0.79463,1.7499 -0.58121,3.30675 0.63485,4.63092 0.9522,1.03685 1.99286,1.36888 4.04185,1.28958 l 1.87667,-0.0726 0.91601,-0.69868 z m -3.06294,-2.75372 c -1.1846,-1.1846 0.12628,-2.49464 2.49625,-2.49464 1.23864,0 1.47701,0.30826 1.04494,1.35136 -0.56306,1.35935 -2.65102,2.03345 -3.54119,1.14328 z m 15.99622,3.29979 c 0.82594,-0.17713 1.71097,-0.60194 2.26199,-1.08574 l 0.90518,-0.79476 v 0.53494 c 0,1.25232 0.21053,1.37196 2.41418,1.37196 h 2.09298 l -0.0708,-6.54844 -0.0708,-6.54843 -2.3151,-0.0764 -2.31511,-0.0764 v 3.44452 c 0,4.76732 -0.56563,6.10107 -2.58743,6.10107 -0.44651,0 -0.98193,-0.23379 -1.27416,-0.55638 l -0.50403,-0.55639 -0.0894,-4.20611 -0.0894,-4.20611 h -2.5109 -2.51092 l 0.0868,4.96093 0.0868,4.96094 0.62025,1.08216 c 0.6543,1.14159 1.7171,1.9186 3.06556,2.24124 1.17261,0.28057 1.3074,0.27852 2.80431,-0.0425 z m -37.44041,-0.35591 c 0.50326,-0.21028 1.20733,-0.67464 1.56461,-1.03192 l 0.64959,-0.64959 0.0805,0.96577 0.0805,0.96576 2.05053,0.0773 2.05052,0.0773 v -9.27155 -9.271544 h -2.24896 -2.24896 v 3.4857 3.485714 l -0.59892,-0.56266 c -1.51766,-1.42576 -4.21999,-1.78581 -6.202,-0.82634 -4.452709,2.15552 -4.239959,10.5456 0.31863,12.56592 1.05822,0.469 3.36997,0.46396 4.50388,-0.01 z m -2.3939,-3.75095 c -1.28403,-1.38549 -1.18623,-3.83917 0.19948,-5.00517 l 0.83627,-0.70367 0.94067,0.1505 c 3.20091,0.51213 2.82484,6.25202 -0.40962,6.25202 -0.6571,0 -1.10958,-0.20033 -1.5668,-0.69368 z m 14.95565,0.81747 c 0,-4.91447 0.65826,-6.0681 3.46248,-6.0681 h 1.5646 v -1.95249 -1.9525 l -1.84595,0.10431 -1.84596,0.1043 -0.91293,0.88485 -0.91292,0.88484 -0.0854,-0.89314 -0.0854,-0.89315 -2.18282,-0.0769 -2.18281,-0.0768 v 6.62528 6.62528 h 2.51354 2.51354 z m 38.09999,-3.29879 v -6.61458 h -2.38125 -2.38125 v 6.61458 6.61458 h 2.38125 2.38125 z m -112.995998,3.84624 c 0.83279,-0.43065 1.077257,-0.8832 1.077257,-1.99416 0,-1.11947 -0.245261,-1.56392 -1.109708,-2.01094 -2.102339,-1.08716 -4.311504,1.36876 -2.963023,3.29399 0.741539,1.05869 1.825646,1.31605 2.995474,0.71111 z m -18.028958,-2.45718 c 0.04184,-1.34607 0.151527,-2.4474 0.24375,-2.4474 0.09222,0 0.377907,0.19026 0.634857,0.4228 0.756864,0.68495 1.029703,0.20066 1.029544,-1.82747 l -1.46e-4,-1.90262 -1.713814,-1.53258 -1.713812,-1.532594 -2.056352,0.0774 -2.056353,0.0774 -0.07193,5.2842 c -0.03956,2.90631 -0.01193,5.44058 0.06142,5.6317 0.10083,0.26277 0.795821,0.3291 2.850059,0.27205 l 2.71671,-0.0755 z m -12.134919,-1.54487 0.814052,-0.68498 v -1.14359 -1.14358 l -0.814052,-0.68498 c -1.10263,-0.9278 -2.189085,-0.89754 -3.17505,0.0884 -2.2438282,2.24382 0.75021,5.60908 3.17505,3.56871 z m 17.870601,-5.2473 c 1.791342,-0.74847 2.201092,-3.072874 0.777459,-4.410304 -1.429578,-1.34302 -4.056191,-0.54892 -4.473828,1.35256 -0.246018,1.120124 0.486132,2.589114 1.512728,3.035144 1.0936,0.47515 1.100354,0.47522 2.183641,0.0226 z m 124.085854,-1.85053 c 1.06563,-0.445254 1.46801,-1.102624 1.46801,-2.398284 0,-1.38594 -0.94584,-2.25433 -2.4554,-2.25433 -0.89833,0 -1.29838,0.151 -1.79195,0.67637 -1.17924,1.25525 -0.67885,3.43798 0.94006,4.100594 0.73997,0.30286 0.83164,0.29667 1.83928,-0.12435 z M 24.689233,98.682296 c 0.572847,-0.51189 0.857282,-1.04842 0.959366,-1.80968 l 0.145103,-1.08207 -0.850308,-0.96845 -0.850307,-0.96845 h -1.127535 c -2.11096,0 -3.474963,1.91268 -2.695086,3.77919 0.787115,1.88383 2.918519,2.390044 4.418767,1.04946 z"
       id="path1237" /></g></svg>
