<?xml version="1.0" encoding="UTF-8" standalone="no"?>
<!-- Created with Inkscape (http://www.inkscape.org/) -->

<svg
   width="298.71457mm"
   height="115.6229mm"
   viewBox="0 0 298.71457 115.6229"
   version="1.1"
   id="svg5"
   xml:space="preserve"
   xmlns="http://www.w3.org/2000/svg"
   xmlns:svg="http://www.w3.org/2000/svg"><defs
     id="defs2" /><g
     id="layer1"
     transform="translate(-0.84871027,-9.8145046)"><rect
       style="fill:#ffffff;stroke-width:0.385389"
       id="rect302"
       x="0.8487103"
       y="9.8145046"
       height="115.623"
       width="298.715" /><path
       style="fill:#000000;stroke-width:0.264583"
       d="M 150.20599,125.43741 H 0.84871027 V 67.625951 9.8145046 H 150.20599 299.56328 V 67.625951 125.43741 Z m -37.70312,-16.07559 c 0.3638,-0.0633 1.00244,-0.47777 1.4192,-0.92115 0.66703,-0.70964 0.74141,-0.95102 0.62134,-2.01628 -0.0987,-0.87564 -0.3305,-1.3771 -0.83864,-1.81418 -0.43595,-0.375 -1.04621,-0.60405 -1.60935,-0.60405 -0.62844,0 -1.17257,0.23719 -1.77119,0.77205 -0.73339,0.65529 -0.86407,0.95216 -0.86407,1.96306 0,0.88945 0.15906,1.36032 0.6282,1.85969 0.3455,0.36778 0.88128,0.7153 1.19062,0.77227 0.30934,0.057 0.86009,0.0518 1.22389,-0.0114 z m -0.33741,-1.12232 c -0.3383,0 -0.75796,-0.14288 -0.93259,-0.3175 -0.17462,-0.17463 -0.3175,-0.77249 -0.3175,-1.32859 0,-0.83384 0.12141,-1.06641 0.69254,-1.32663 0.61123,-0.2785 0.75102,-0.24333 1.19063,0.29956 0.27394,0.33831 0.49808,0.77277 0.49808,0.96545 0,0.19269 -0.11611,0.65575 -0.25803,1.02902 -0.17486,0.4599 -0.45632,0.67869 -0.87313,0.67869 z m 21.1072,1.16362 c 0.29104,-0.0539 0.678,-0.0997 0.8599,-0.10168 0.1819,-0.002 0.33073,-0.27736 0.33073,-0.61194 0,-0.53989 -0.10459,-0.59612 -0.92969,-0.4998 -0.51133,0.0597 -1.10664,-0.0383 -1.32291,-0.21781 -0.21628,-0.17949 -0.39141,-0.69873 -0.38918,-1.15385 0.002,-0.45513 0.11579,-1.00422 0.25236,-1.22022 0.1594,-0.2521 0.63663,-0.38253 1.33287,-0.36428 0.96143,0.0252 1.07546,-0.0353 1.00441,-0.53332 -0.0648,-0.45421 -0.2916,-0.57715 -1.18453,-0.64214 -0.91444,-0.0666 -1.25573,0.0548 -1.98438,0.7059 -0.75016,0.67027 -0.87999,0.96199 -0.87999,1.97729 0,0.88945 0.15905,1.36032 0.62819,1.85969 0.3455,0.36778 0.88129,0.72078 1.19062,0.78445 0.30934,0.0637 0.80056,0.0716 1.0916,0.0177 z m -17.3302,-0.10529 c 0.47486,0 0.53128,-0.18327 0.54982,-1.78594 l 0.0207,-1.78593 0.59718,1.71979 c 0.50477,1.45364 0.69258,1.71979 1.21359,1.71979 0.52101,0 0.70882,-0.26615 1.21358,-1.71979 l 0.59719,-1.71979 0.0207,1.78593 c 0.0199,1.7231 0.0439,1.78594 0.68211,1.78594 h 0.66146 v -2.66181 -2.6618 l -0.97126,0.0821 c -0.94154,0.0796 -0.98871,0.13455 -1.54198,1.79622 l -0.57072,1.71409 -0.63847,-1.78024 c -0.61059,-1.70249 -0.67614,-1.78025 -1.50074,-1.78025 h -0.86226 v 2.64584 c 0,2.46944 0.0353,2.64583 0.52917,2.64583 z m 6.98925,0 c 0.62258,0 0.6627,-0.0897 0.73718,-1.64784 l 0.0788,-1.64783 1.05833,1.64552 c 0.87463,1.35989 1.18463,1.64592 1.78594,1.64784 l 0.72761,0.002 v -2.64583 c 0,-2.63211 -0.003,-2.64584 -0.64884,-2.64584 -0.61111,0 -0.65341,0.0961 -0.7276,1.65365 l -0.0788,1.65365 -1.03792,-1.66681 c -0.88712,-1.42465 -1.13698,-1.65529 -1.71979,-1.5875 -0.67475,0.0785 -0.68266,0.10625 -0.7576,2.65899 l -0.0757,2.57969 z m 6.10762,0 h 0.66146 v -2.64583 -2.64584 h -0.66146 -0.66146 v 2.64584 2.64583 z m 6.37952,0 c 0.45896,0 0.72666,-0.17278 0.81985,-0.52917 0.10491,-0.40117 0.3609,-0.52916 1.05834,-0.52916 0.69744,0 0.95342,0.12799 1.05833,0.52916 0.0978,0.37404 0.3609,0.52917 0.89741,0.52917 h 0.75903 l -0.48859,-1.25677 c -0.26872,-0.69122 -0.69327,-1.88185 -0.94344,-2.64583 -0.41085,-1.25466 -0.5296,-1.38907 -1.22734,-1.38907 -0.42487,0 -0.77249,0.0453 -0.77249,0.10073 0,0.0554 -0.41458,1.24603 -0.92129,2.64584 l -0.92128,2.5451 z m 1.94655,-2.11667 c -0.28648,0 -0.5125,-0.14882 -0.50227,-0.33073 0.0102,-0.1819 0.11651,-0.56885 0.23618,-0.85989 0.17223,-0.41885 0.2458,-0.44643 0.3529,-0.13229 0.0744,0.21828 0.20253,0.60523 0.28468,0.85989 0.10799,0.33476 0.005,0.46302 -0.37149,0.46302 z m 3.83156,2.11667 c 0.60249,0 0.65385,-0.10602 0.7276,-1.50178 l 0.0794,-1.50178 0.99489,1.50178 c 0.7668,1.15748 1.14592,1.50178 1.65365,1.50178 0.65803,0 0.65875,-0.003 0.65875,-2.64583 v -2.64584 h -0.66145 c -0.63475,0 -0.66156,0.0668 -0.66386,1.65365 l -0.002,1.65365 -1.09015,-1.65365 c -0.82861,-1.25688 -1.24067,-1.65365 -1.71741,-1.65365 -0.61812,0 -0.62724,0.0385 -0.62724,2.64584 0,2.63146 0.004,2.64583 0.64825,2.64583 z m 5.31181,0 c 0.48154,0 0.74779,-0.16724 0.84244,-0.52917 0.10328,-0.39496 0.36089,-0.52916 1.01573,-0.52916 0.64498,0 0.92184,0.14015 1.0453,0.52916 0.10732,0.33812 0.40033,0.52917 0.81158,0.52917 0.354,0 0.63466,-0.14883 0.6237,-0.33073 -0.0109,-0.1819 -0.40175,-1.34276 -0.86842,-2.57969 -0.78865,-2.09035 -0.90114,-2.24895 -1.59501,-2.24895 -0.69104,0 -0.80259,0.15381 -1.50107,2.06963 -0.415,1.13831 -0.82739,2.29917 -0.91643,2.57969 -0.13217,0.41645 -0.0327,0.51005 0.54218,0.51005 z m 1.96367,-2.11667 c -0.28347,0 -0.50704,-0.14882 -0.49681,-0.33073 0.0102,-0.1819 0.10939,-0.56276 0.22036,-0.84636 0.17781,-0.45443 0.23679,-0.41516 0.49681,0.33073 0.26612,0.76342 0.24453,0.84636 -0.22036,0.84636 z m 4.65379,2.11667 c 1.52252,0 1.73742,-0.0599 1.66106,-0.46302 -0.0575,-0.3034 -0.37967,-0.49132 -0.9346,-0.54512 l -0.84689,-0.0821 -0.077,-2.03457 c -0.0747,-1.97328 -0.0969,-2.03456 -0.73844,-2.03456 -0.65515,0 -0.66218,0.0246 -0.73719,2.57968 l -0.0757,2.57969 z m 11.04503,-4.23432 c 0.25934,5.3e-4 0.87651,-0.16823 1.37149,-0.37504 0.50037,-0.20907 1.08399,-0.73189 1.31442,-1.17749 0.22795,-0.4408 0.41445,-1.11285 0.41445,-1.49345 0,-0.38059 -0.11269,-0.90255 -0.25043,-1.15991 -0.20227,-0.37796 0.0418,-0.75706 1.26939,-1.971875 1.47014,-1.45479 1.54751,-1.4943 2.3671,-1.20859 0.58495,0.20392 1.08283,0.21325 1.60812,0.0301 0.71031,-0.24761 0.85884,-0.16583 2.23562,1.23088 1.4132,1.433675 1.46849,1.541915 1.32465,2.593175 -0.10892,0.79604 -0.0177,1.32121 0.33245,1.91396 0.2654,0.44929 0.86297,0.99741 1.32792,1.21805 0.46495,0.22063 1.06549,0.4007 1.33454,0.40016 0.26905,-5.3e-4 0.8833,-0.24128 1.365,-0.53496 0.48169,-0.29369 1.05432,-0.9612 1.27249,-1.48336 0.30806,-0.73728 0.33296,-1.13217 0.11148,-1.76752 -0.27254,-0.78181 -0.21924,-0.88481 1.20048,-2.319495 1.41434,-1.42925 1.52623,-1.48891 2.32979,-1.24229 0.63235,0.19407 1.08539,0.15825 1.80592,-0.14281 0.529,-0.22103 1.17673,-0.72988 1.4394,-1.13076 0.26268,-0.40089 0.47759,-1.17975 0.47759,-1.7308 0,-0.74524 -0.19672,-1.20724 -0.76793,-1.80346 -0.42237,-0.44085 -1.15223,-0.87364 -1.62191,-0.96175 -0.54738,-0.10269 -1.18834,-0.002 -1.7853,0.28173 -0.5813,0.27585 -1.10299,0.80371 -1.38809,1.40452 -0.36349,0.766 -0.40312,1.16359 -0.19403,1.94693 0.25833,0.96783 0.23753,1.0093 -1.2395,2.47092 -1.42127,1.40643 -1.5404,1.46918 -2.21019,1.164 -0.51813,-0.23607 -0.94869,-0.24867 -1.60587,-0.047 -0.87173,0.26754 -0.94076,0.23213 -2.36539,-1.21316 -1.39952,-1.41982 -1.4606,-1.53879 -1.31944,-2.57015 0.1,-0.73023 0.008,-1.35171 -0.28241,-1.91375 -0.23672,-0.45778 -0.77967,-1.01294 -1.20654,-1.23369 -0.42687,-0.22074 -1.04994,-0.40091 -1.38459,-0.40036 -0.33464,5.3e-4 -0.9878,0.2323 -1.45146,0.51501 -0.46365,0.28271 -0.9798,0.7696 -1.14698,1.08199 -0.16718,0.31239 -0.26408,1.14765 -0.21532,1.85613 0.0858,1.24642 0.0426,1.33481 -1.33279,2.72843 -1.32702,1.34461 -1.47231,1.42254 -2.18748,1.17322 -0.42133,-0.14687 -1.07686,-0.18903 -1.45674,-0.0937 -0.37988,0.0953 -1.03262,0.51528 -1.45054,0.933195 -0.59218,0.59218 -0.75985,1.00171 -0.75985,1.85593 0,0.60284 0.12667,1.33275 0.28147,1.62201 0.15481,0.28926 0.66083,0.75724 1.12448,1.03995 0.46366,0.28271 1.05519,0.51446 1.31453,0.51501 z m 0.0808,-1.32193 c -0.16628,0 -0.57345,-0.18991 -0.90483,-0.42202 -0.47277,-0.33113 -0.58516,-0.62846 -0.5219,-1.38075 0.0606,-0.72094 0.25807,-1.05788 0.7961,-1.35848 0.65999,-0.36875 0.77285,-0.35711 1.45521,0.15014 0.40685,0.30245 0.77607,0.85173 0.82049,1.22064 0.0569,0.47289 -0.1292,0.83589 -0.631,1.23061 -0.39146,0.30792 -0.84779,0.55986 -1.01407,0.55986 z m 14.5057,0 c -0.16628,0 -0.62261,-0.25194 -1.01407,-0.55986 -0.5018,-0.39472 -0.68793,-0.75772 -0.631,-1.23061 0.0444,-0.36891 0.41364,-0.91819 0.82049,-1.22064 0.68236,-0.50725 0.79522,-0.51889 1.45521,-0.15014 0.53803,0.3006 0.73547,0.63754 0.7961,1.35848 0.0633,0.75229 -0.0491,1.04962 -0.5219,1.38075 -0.33138,0.23211 -0.73855,0.42202 -0.90483,0.42202 z m -7.22239,-7.164635 c -0.0895,-0.0115 -0.34135,-0.0847 -0.55963,-0.16273 -0.21828,-0.078 -0.5457,-0.32949 -0.7276,-0.55884 -0.1819,-0.22936 -0.33073,-0.74469 -0.33073,-1.14519 0,-0.45254 0.22259,-0.88409 0.58804,-1.14006 0.32342,-0.22653 0.79967,-0.41187 1.05833,-0.41187 0.25866,0 0.70842,0.23812 0.99946,0.52916 0.29105,0.29104 0.52917,0.81818 0.52917,1.17142 0,0.37871 -0.28608,0.86729 -0.69714,1.19063 -0.38343,0.3016 -0.77038,0.53897 -0.8599,0.52748 z m 14.85953,-0.1862 c -0.26947,0.0705 -0.75435,0.0303 -1.07753,-0.0893 -0.32318,-0.11955 -0.72258,-0.51362 -0.88756,-0.87572 -0.24044,-0.52772 -0.21517,-0.78776 0.1274,-1.31058 0.23504,-0.35872 0.67448,-0.73066 0.97652,-0.82653 0.32387,-0.10279 0.807,-0.005 1.17761,0.23747 0.34564,0.22647 0.70687,0.6589 0.80273,0.96094 0.10194,0.32117 0.007,0.80375 -0.22747,1.16236 -0.22098,0.33725 -0.62225,0.67084 -0.8917,0.74131 z m -92.508357,6.271615 c 0.456819,0.0115 1.102291,-0.19913 1.43438,-0.46804 0.523499,-0.4239 0.619824,-0.79426 0.724302,-2.784875 l 0.120507,-2.29596 -0.768709,0.0586 c -0.422789,0.0322 -0.90414,-0.0251 -1.069663,-0.12743 -0.165526,-0.1023 -0.596932,-0.0735 -0.958681,0.0641 -0.406238,0.15445 -0.771848,0.59584 -0.956185,1.1544 -0.202904,0.6148 -0.215263,1.12317 -0.0386,1.58782 0.142923,0.375915 0.495888,0.809795 0.784368,0.964185 0.351325,0.18803 0.748628,0.1955 1.203291,0.0226 0.37333,-0.14194 0.67878,-0.16471 0.67878,-0.0506 0,0.1141 -0.160739,0.42729 -0.3572,0.69596 -0.278712,0.38116 -0.569402,0.45407 -1.322917,0.33179 -0.712846,-0.11569 -0.965716,-0.0629 -0.965716,0.20146 0,0.19701 0.148828,0.41825 0.330729,0.49165 0.181901,0.0734 0.704493,0.14285 1.161314,0.15434 z m 0.240538,-2.62495 c -0.406218,0 -0.699704,-0.192545 -0.80654,-0.529155 -0.09237,-0.29105 -0.09237,-0.7673 0,-1.05834 0.108087,-0.34055 0.400322,-0.52916 0.819883,-0.52916 0.358563,0 0.720569,0.17886 0.804455,0.39746 0.08389,0.21861 0.07788,0.69486 -0.01333,1.05834 -0.119571,0.47641 -0.344107,0.660855 -0.804453,0.660855 z m 43.699579,2.64584 c 0.59637,0 1.11016,-0.21619 1.5434,-0.64944 0.58211,-0.5821 0.64943,-0.87054 0.64943,-2.782315 v -2.1329 l -0.7276,0.0395 c -0.40018,0.0217 -0.93067,-0.0466 -1.17886,-0.15188 -0.30723,-0.13028 -0.67116,0.0285 -1.14023,0.49761 -0.53712,0.53712 -0.67092,0.90105 -0.60708,1.65116 0.0572,0.67157 0.29168,1.118115 0.77646,1.478465 0.56482,0.41986 0.79959,0.46009 1.25677,0.21542 0.44991,-0.24079 0.56221,-0.22622 0.56221,0.0729 0,0.20558 -0.17889,0.52225 -0.39753,0.70371 -0.23594,0.19581 -0.71991,0.26544 -1.19063,0.1713 -0.55777,-0.11155 -0.79309,-0.0559 -0.79309,0.18754 0,0.1904 0.0794,0.42554 0.17639,0.52256 0.097,0.097 0.57868,0.17639 1.07036,0.17639 z m 0.40571,-2.693415 c -0.34778,0.04941 -0.65988,-0.0805 -0.74852,-0.31149 -0.0836,-0.21791 -0.11286,-0.67274 -0.065,-1.01075 0.0646,-0.45592 0.25781,-0.61455 0.74852,-0.61455 0.57957,0 0.66146,0.11465 0.66146,0.92604 0,0.75945 -0.10731,0.94128 -0.59649,1.01075 z m 30.93466,1.635075 c 0.1785,0 0.65849,-0.31993 1.06663,-0.71096 0.40815,-0.39102 0.74208,-0.926795 0.74208,-1.190615 0,-0.28678 -0.19289,-0.47967 -0.47966,-0.47967 -0.26382,0 -0.81506,0.35008 -1.225,0.777955 -0.45126,0.47101 -0.68284,0.94077 -0.58697,1.19062 0.0871,0.22697 0.30441,0.41267 0.48292,0.41267 z M 83.310881,101.0877 c 0.02447,0.004 0.232839,-0.0642 0.463021,-0.15255 0.230185,-0.0883 0.418515,-0.32646 0.418515,-0.52917 0,-0.20271 -0.178593,-0.36857 -0.396875,-0.36857 -0.286631,0 -0.396875,-0.293975 -0.396875,-1.058325 0,-0.76435 0.110244,-1.05833 0.396875,-1.05833 0.218282,0 0.396875,-0.1786 0.396875,-0.39688 0,-0.21828 -0.178593,-0.39687 -0.396875,-0.39687 -0.220485,0 -0.396875,-0.23519 -0.396875,-0.52917 0,-0.35278 -0.176389,-0.52917 -0.529166,-0.52917 -0.352777,0 -0.529167,0.17639 -0.529167,0.52917 0,0.29398 -0.17639,0.52917 -0.396875,0.52917 -0.218281,0 -0.396875,0.12279 -0.396875,0.27288 0,0.15009 0.178594,0.34142 0.396875,0.42519 0.277185,0.10636 0.396875,0.53875 0.396875,1.43375 0,0.941315 0.122904,1.353045 0.463021,1.551145 0.254661,0.14833 0.48305,0.27331 0.507526,0.27773 z m 3.047124,-0.009 c 0.09967,0.009 0.486622,-0.0993 0.859896,-0.24126 0.373277,-0.14192 0.678683,-0.3732 0.678683,-0.51396 0,-0.14075 -0.496763,-0.29253 -1.103916,-0.337265 -0.607152,-0.0447 -1.152856,-0.23019 -1.212673,-0.41209 -0.07763,-0.23608 0.284356,-0.33073 1.264889,-0.33073 1.365382,0 1.372576,-0.004 1.195263,-0.72761 -0.09811,-0.40018 -0.343474,-0.89627 -0.545251,-1.10243 -0.201774,-0.20615 -0.748276,-0.37482 -1.214443,-0.37482 -0.562779,0 -1.011536,0.20247 -1.335516,0.60257 -0.268364,0.33142 -0.487936,0.89487 -0.487936,1.25212 0,0.35725 0.126846,0.88655 0.281879,1.176235 0.155035,0.28968 0.541988,0.63149 0.859896,0.75958 0.31791,0.12809 0.659563,0.24044 0.759229,0.24966 z m -0.04892,-2.629055 c -0.482613,0 -0.757119,-0.1098 -0.661458,-0.26458 0.08994,-0.14552 0.387593,-0.26458 0.661458,-0.26458 0.273865,0 0.571521,0.11906 0.661458,0.26458 0.09566,0.15478 -0.178845,0.26458 -0.661458,0.26458 z m 12.219753,2.629055 c 0.09967,0.009 0.486622,-0.0993 0.859896,-0.24126 0.373277,-0.14192 0.678686,-0.3732 0.678686,-0.51395 0,-0.14076 -0.496767,-0.29253 -1.103919,-0.337275 -0.607153,-0.0447 -1.152856,-0.23019 -1.212673,-0.41209 -0.07743,-0.23547 0.27862,-0.33073 1.236208,-0.33073 1.142284,0 1.344964,-0.0753 1.344964,-0.49985 0,-0.27492 -0.20836,-0.74083 -0.463021,-1.03534 -0.254661,-0.29452 -0.731774,-0.61367 -1.060249,-0.70921 -0.449934,-0.13088 -0.792514,0.0216 -1.389062,0.61811 -0.43551,0.43551 -0.791835,0.97184 -0.791835,1.19184 0,0.22 0.11733,0.70861 0.260737,1.08579 0.143404,0.377175 0.530357,0.794095 0.859895,0.926495 0.329536,0.13238 0.680707,0.24825 0.780373,0.25747 z m -0.04892,-2.629055 c -0.482614,0 -0.757119,-0.1098 -0.661459,-0.26458 0.08994,-0.14552 0.387594,-0.26458 0.661459,-0.26458 0.273865,0 0.571521,0.11906 0.661458,0.26458 0.09566,0.15478 -0.178845,0.26458 -0.661458,0.26458 z m 8.234232,2.645835 c 0.14697,0 0.49752,-0.12325 0.77899,-0.27389 0.28148,-0.15065 0.51178,-0.38877 0.51178,-0.52917 0,-0.1404 -0.41445,-0.25528 -0.921,-0.25528 -0.76301,0 -0.94963,-0.114045 -1.08788,-0.664885 -0.0957,-0.38135 -0.0276,-0.83268 0.15965,-1.05834 0.17959,-0.21638 0.66913,-0.39343 1.08787,-0.39343 0.47185,0 0.76136,-0.13918 0.76136,-0.36602 0,-0.20131 -0.2509,-0.43163 -0.55756,-0.51182 -0.30666,-0.0802 -0.81757,-0.047 -1.13536,0.0739 -0.31778,0.12082 -0.74157,0.41702 -0.94174,0.65821 -0.20018,0.24119 -0.36395,0.80822 -0.36395,1.26006 0,0.56608 0.22397,1.014175 0.72031,1.441105 0.39617,0.34077 0.84056,0.61959 0.98753,0.61959 z m 5.11965,-0.21518 c 0.14136,-0.0842 0.58784,-0.12783 0.99219,-0.097 0.7283,0.0555 0.73518,0.0412 0.73518,-1.529575 0,-1.39386 -0.079,-1.63735 -0.65298,-2.01346 -0.4896,-0.32079 -0.83716,-0.36648 -1.38907,-0.18261 -0.40484,0.13488 -0.77006,0.42032 -0.8116,0.6343 -0.058,0.29885 0.14137,0.36374 0.85989,0.27986 0.51449,-0.0601 0.93542,0.002 0.93542,0.13766 0,0.13578 -0.44648,0.35716 -0.99218,0.49197 -0.86551,0.2138 -1.0028,0.35518 -1.07527,1.10726 -0.0673,0.698485 0.0332,0.906045 0.52917,1.093405 0.33673,0.12719 0.7279,0.16239 0.86925,0.0782 z m -0.0145,-0.84316 c -0.39905,0 -0.64113,-0.127115 -0.58168,-0.305455 0.056,-0.168 0.36357,-0.40229 0.6835,-0.52064 0.47503,-0.17572 0.58169,-0.11971 0.58169,0.30546 0,0.38344 -0.18012,0.520635 -0.68351,0.520635 z m 6.18538,0.91456 c 0.24819,-0.10525 0.77868,-0.1736 1.17886,-0.15188 l 0.7276,0.0395 v -2.801725 c 0,-2.52534 -0.0457,-2.79307 -0.46302,-2.71401 -0.2984,0.0565 -0.49133,0.37698 -0.54264,0.90134 -0.0695,0.70973 -0.18087,0.81363 -0.8725,0.81363 -0.43608,0 -0.96979,0.17692 -1.18602,0.39315 -0.21623,0.21623 -0.46285,0.82264 -0.54803,1.34758 -0.12931,0.79685 -0.0385,1.07076 0.54981,1.659105 0.48139,0.4814 0.84767,0.64405 1.15594,0.51333 z m 0.17837,-0.91456 c -0.36837,0 -0.7384,-0.178855 -0.82229,-0.397455 -0.0839,-0.21861 -0.0779,-0.69486 0.0133,-1.05834 0.12113,-0.48261 0.34292,-0.66086 0.82229,-0.66086 0.58943,0 0.65641,0.108 0.65641,1.05833 0,0.956 -0.0648,1.058325 -0.66976,1.058325 z m 4.42285,1.04156 c 0.0997,0.009 0.48662,-0.0993 0.85989,-0.24126 0.37328,-0.14192 0.67869,-0.3732 0.67869,-0.51395 0,-0.14076 -0.49677,-0.29253 -1.10392,-0.337275 -0.60715,-0.0447 -1.15286,-0.23019 -1.21267,-0.41209 -0.0776,-0.23608 0.28435,-0.33073 1.26489,-0.33073 1.36538,0 1.37257,-0.004 1.19526,-0.7276 -0.0981,-0.40018 -0.34348,-0.89628 -0.54525,-1.10243 -0.20178,-0.20616 -0.74828,-0.37483 -1.21445,-0.37483 -0.56277,0 -1.01153,0.20248 -1.33551,0.60258 -0.26837,0.33142 -0.48794,0.89487 -0.48794,1.25212 0,0.35724 0.12685,0.88655 0.28188,1.176225 0.15504,0.28968 0.54199,0.6315 0.8599,0.75959 0.31791,0.12808 0.65956,0.24043 0.75923,0.24965 z m -0.0489,-2.629055 c -0.48262,0 -0.75712,-0.1098 -0.66146,-0.26458 0.0899,-0.14552 0.38759,-0.26458 0.66146,-0.26458 0.27386,0 0.57152,0.11906 0.66145,0.26458 0.0957,0.15478 -0.17884,0.26458 -0.66145,0.26458 z m 11.69058,2.629055 c 0.0997,0.009 0.48663,-0.0993 0.8599,-0.24126 0.37327,-0.14192 0.67868,-0.3732 0.67868,-0.51395 0,-0.14076 -0.49676,-0.29253 -1.10391,-0.337275 -0.60716,-0.0447 -1.15286,-0.23019 -1.21268,-0.41209 -0.0774,-0.23547 0.27862,-0.33073 1.23621,-0.33073 1.14228,0 1.34496,-0.0753 1.34496,-0.49985 0,-0.27492 -0.20836,-0.74083 -0.46302,-1.03534 -0.25466,-0.29452 -0.73177,-0.61367 -1.06024,-0.70921 -0.44994,-0.13088 -0.79252,0.0216 -1.38907,0.61811 -0.43551,0.43551 -0.79183,0.97184 -0.79183,1.19184 0,0.22 0.11733,0.70861 0.26074,1.08579 0.1434,0.377175 0.53035,0.794095 0.85989,0.926495 0.32954,0.13238 0.68071,0.24825 0.78037,0.25747 z m -0.0489,-2.629055 c -0.48261,0 -0.75711,-0.1098 -0.66145,-0.26458 0.0899,-0.14552 0.38759,-0.26458 0.66145,-0.26458 0.27387,0 0.57153,0.11906 0.66146,0.26458 0.0957,0.15478 -0.17884,0.26458 -0.66146,0.26458 z m 8.36104,2.629055 c 0.0147,0.009 0.39038,-0.11001 0.83491,-0.26498 0.49165,-0.17139 0.93207,-0.58068 1.12435,-1.044885 0.21338,-0.51515 0.23621,-1.00393 0.0702,-1.50418 -0.13522,-0.40758 -0.53411,-0.891 -0.88643,-1.07427 -0.35231,-0.18327 -0.93822,-0.26749 -1.30202,-0.18716 -0.3638,0.0803 -0.86982,0.39231 -1.12448,0.69327 -0.25466,0.30095 -0.46302,0.83949 -0.46302,1.19674 0,0.35724 0.12685,0.88655 0.28188,1.176225 0.15504,0.28968 0.54199,0.6315 0.8599,0.75959 0.31791,0.12808 0.59001,0.24043 0.60468,0.24965 z m 0.30256,-1.089975 c -0.46267,0.0532 -0.78454,-0.0606 -0.88082,-0.31149 -0.0834,-0.21744 -0.11253,-0.6719 -0.0646,-1.00991 0.069,-0.4871 0.25169,-0.61455 0.88082,-0.61455 0.73076,0 0.79375,0.0735 0.79375,0.92604 0,0.81401 -0.0882,0.93619 -0.72911,1.00991 z m 4.52106,0.953495 c 0.1938,-0.0612 0.4617,-0.11133 0.59532,-0.11133 0.13361,0 0.24294,-0.17105 0.24294,-0.38011 0,-0.23545 -0.32726,-0.41166 -0.8599,-0.463015 -0.79055,-0.0762 -0.85989,-0.15758 -0.85989,-1.00895 0,-0.85137 0.0693,-0.93273 0.85989,-1.00895 0.51111,-0.0493 0.8599,-0.22986 0.8599,-0.44519 0,-0.19926 -0.2224,-0.43287 -0.49422,-0.51914 -0.27182,-0.0863 -0.80036,-0.0405 -1.17454,0.10179 -0.37417,0.14227 -0.80662,0.49466 -0.96099,0.7831 -0.15437,0.28844 -0.28067,0.871 -0.28067,1.29457 0,0.42358 0.20836,0.951645 0.46302,1.173495 0.25466,0.22184 0.64162,0.46899 0.8599,0.54921 0.21828,0.0802 0.55544,0.0958 0.74924,0.0345 z m 4.96596,0.13648 c 0.0147,0.009 0.39038,-0.11001 0.83491,-0.26498 0.49165,-0.17139 0.93207,-0.58068 1.12435,-1.044885 0.21338,-0.51515 0.23621,-1.00393 0.0702,-1.50418 -0.13523,-0.40758 -0.53412,-0.891 -0.88643,-1.07427 -0.35231,-0.18327 -0.93822,-0.26749 -1.30202,-0.18716 -0.3638,0.0803 -0.86982,0.39231 -1.12448,0.69327 -0.25466,0.30095 -0.46302,0.83949 -0.46302,1.19674 0,0.35724 0.12684,0.88655 0.28188,1.176225 0.15503,0.28968 0.54199,0.6315 0.85989,0.75959 0.31791,0.12808 0.59002,0.24043 0.60468,0.24965 z m 0.30256,-1.089975 c -0.46267,0.0532 -0.78454,-0.0606 -0.88082,-0.31149 -0.0834,-0.21744 -0.11253,-0.6719 -0.0646,-1.00991 0.069,-0.4871 0.25169,-0.61455 0.88082,-0.61455 0.73076,0 0.79375,0.0735 0.79375,0.92604 0,0.81401 -0.0882,0.93619 -0.72911,1.00991 z m -76.538795,0.842165 c 0.33868,0 0.406456,-0.44487 0.406456,-2.667875 0,-2.01639 -0.08076,-2.64111 -0.330729,-2.55824 -0.226899,0.0752 -0.354505,0.91279 -0.406456,2.66788 -0.06386,2.157265 -0.01201,2.558235 0.330729,2.558235 z m 1.980129,0 c 0.435136,0 0.527785,-0.21618 0.595312,-1.389055 0.06967,-1.21012 0.15666,-1.39995 0.675286,-1.47361 0.556223,-0.079 0.595312,0.0122 0.595312,1.38906 0,1.297215 0.06334,1.473605 0.529167,1.473605 0.470143,0 0.529166,-0.17639 0.529166,-1.581395 0,-1.38731 -0.07975,-1.63365 -0.649822,-2.00718 -0.368445,-0.24141 -0.794792,-0.33618 -0.984617,-0.21887 -0.184134,0.11381 -0.66562,0.18171 -1.069967,0.1509 l -0.735177,-0.056 v 1.85629 c 0,1.663285 0.05358,1.856275 0.51534,1.856275 z m 10.852488,0 c 0.507558,0 0.538422,-0.16036 0.538422,-2.797515 0,-2.52169 -0.04565,-2.78879 -0.463021,-2.70888 -0.398976,0.0764 -0.473451,0.46334 -0.538422,2.79753 -0.07161,2.572705 -0.04834,2.708865 0.463021,2.708865 z m 2.125921,0 c 0.478768,0 0.529166,-0.17639 0.529166,-1.852075 0,-1.67569 -0.0504,-1.85208 -0.529166,-1.85208 -0.478769,0 -0.529167,0.17639 -0.529167,1.85208 0,1.675685 0.0504,1.852075 0.529167,1.852075 z m 10.304927,0 c 0.43513,0 0.52778,-0.21618 0.59531,-1.389055 0.0697,-1.21012 0.15666,-1.39995 0.67528,-1.47361 0.55623,-0.079 0.59532,0.0122 0.59532,1.38906 0,1.297215 0.0633,1.473605 0.52916,1.473605 0.47015,0 0.52917,-0.17639 0.52917,-1.581395 0,-1.38731 -0.0798,-1.63365 -0.64982,-2.00718 -0.36845,-0.24141 -0.7948,-0.33618 -0.98462,-0.21887 -0.18413,0.11381 -0.66562,0.18171 -1.06997,0.1509 l -0.73517,-0.056 v 1.85629 c 0,1.663285 0.0536,1.856275 0.51534,1.856275 z m 7.68674,0 c 0.47877,0 0.52917,-0.17639 0.52917,-1.852075 0,-1.67569 -0.0504,-1.85208 -0.52917,-1.85208 -0.47877,0 -0.52917,0.17639 -0.52917,1.85208 0,1.675685 0.0504,1.852075 0.52917,1.852075 z m 18.50874,0 c 0.4541,0 0.52661,-0.21696 0.59532,-1.781185 l 0.0782,-1.78119 1.11489,1.78119 c 0.78263,1.250335 1.27547,1.781185 1.65365,1.781185 0.50629,0 0.53875,-0.16059 0.53875,-2.665225 0,-2.39542 -0.0469,-2.65633 -0.46302,-2.57731 -0.36562,0.0694 -0.49085,0.44201 -0.59532,1.77115 l -0.13229,1.68324 -1.11398,-1.75176 c -0.77749,-1.22262 -1.27699,-1.75175 -1.65364,-1.75175 -0.50719,0 -0.53967,0.15923 -0.53967,2.64583 0,2.448815 0.0385,2.645825 0.51708,2.645825 z m 21.70792,0 c 0.47877,0 0.52917,-0.17639 0.52917,-1.852075 0,-1.67569 -0.0504,-1.85208 -0.52917,-1.85208 -0.47877,0 -0.52917,0.17639 -0.52917,1.85208 0,1.675685 0.0504,1.852075 0.52917,1.852075 z m 31.41927,-3.788545 c 0.47294,-0.44724 0.8599,-0.97214 0.8599,-1.16644 0,-0.19431 -0.1857,-0.42454 -0.41267,-0.51164 -0.24986,-0.0959 -0.71961,0.13571 -1.19063,0.58697 -0.42787,0.40994 -0.77795,0.95126 -0.77795,1.20295 0,0.25169 0.14882,0.51245 0.33073,0.57947 0.1819,0.067 0.71768,-0.24406 1.19062,-0.69131 z m -89.759889,-0.70936 c 0.201104,0 0.44564,-0.12944 0.543414,-0.28764 0.09777,-0.1582 0.05032,-0.41509 -0.105462,-0.57087 -0.201256,-0.20126 -0.400506,-0.1859 -0.688409,0.053 -0.222846,0.18495 -0.339929,0.44184 -0.260181,0.57087 0.07975,0.12904 0.309533,0.23461 0.510638,0.23461 z m 18.271869,0 c 0.20969,0 0.38126,-0.17157 0.38126,-0.38126 0,-0.2097 -0.12944,-0.46126 -0.28764,-0.55903 -0.1582,-0.0978 -0.40977,-0.0556 -0.55903,0.0936 -0.14927,0.14926 -0.1914,0.40083 -0.0936,0.55903 0.0978,0.1582 0.34934,0.28764 0.55903,0.28764 z m 40.20104,0 c 0.20111,0 0.4309,-0.10557 0.51064,-0.23461 0.0798,-0.12903 -0.0373,-0.38592 -0.26018,-0.57087 -0.2879,-0.23893 -0.48715,-0.25429 -0.68841,-0.053 -0.15578,0.15578 -0.20324,0.41267 -0.10546,0.57087 0.0978,0.1582 0.34231,0.28764 0.54341,0.28764 z m -21.82484,-3.43959 c 0.12654,0 0.30044,-0.11386 0.38646,-0.25303 0.086,-0.13916 0.33116,-0.18595 0.54478,-0.10398 0.30193,0.11587 0.3884,-0.0887 0.3884,-0.9187 0,-0.61789 -0.17517,-1.24291 -0.41578,-1.48351 -0.22867,-0.22868 -0.50357,-0.41578 -0.61088,-0.41578 -0.10732,0 -0.42624,0.1728 -0.70871,0.384 -0.48989,0.36626 -0.48067,0.38153 0.19965,0.33072 0.39228,-0.0293 0.74946,0.0658 0.79375,0.21132 0.0443,0.14553 -0.18764,0.30267 -0.51538,0.34921 -0.32774,0.0465 -0.71446,0.30617 -0.85937,0.57694 -0.19444,0.36331 -0.15467,0.60113 0.15177,0.90756 0.22838,0.22839 0.51878,0.41525 0.64531,0.41525 z m -0.0562,-0.52916 c -0.11641,0 -0.21166,-0.16471 -0.21166,-0.36602 0,-0.20131 0.23812,-0.42829 0.52916,-0.5044 0.29105,-0.0761 0.52917,-0.0543 0.52917,0.0485 0,0.10279 -0.14287,0.32977 -0.3175,0.5044 -0.17462,0.17462 -0.41275,0.3175 -0.52917,0.3175 z m 3.0826,0.31273 c 0.14192,-0.0818 0.11309,-0.19118 -0.0662,-0.25093 -0.17474,-0.0582 -0.3177,-0.50278 -0.3177,-0.98785 0,-0.48506 0.14883,-0.95139 0.33073,-1.03628 0.26458,-0.12347 0.26458,-0.18521 0,-0.30868 -0.1819,-0.0849 -0.33073,-0.32301 -0.33073,-0.52917 0,-0.20615 -0.11906,-0.37482 -0.26458,-0.37482 -0.14552,0 -0.26459,0.17859 -0.26459,0.39687 0,0.21828 -0.14287,0.39688 -0.3175,0.39688 -0.24694,0 -0.24694,0.0706 0,0.3175 0.17463,0.17462 0.3175,0.76001 0.3175,1.30087 0,0.54703 0.14675,1.036 0.33073,1.102 0.1819,0.0653 0.44393,0.0534 0.58228,-0.0264 z m 1.98733,0.01 c 0.70778,-0.10387 0.80382,-0.22153 0.80382,-0.98467 0,-0.47669 -0.20835,-1.11743 -0.46302,-1.42389 -0.3254,-0.39159 -0.63995,-0.50908 -1.05833,-0.39533 -0.32742,0.089 -0.59531,0.26931 -0.59531,0.40063 0,0.13132 0.29765,0.16406 0.66146,0.0727 0.49091,-0.12321 0.66145,-0.061 0.66145,0.24114 0,0.22393 -0.25573,0.4452 -0.56829,0.4917 -0.31256,0.0465 -0.69951,0.29989 -0.85989,0.56307 -0.22931,0.37628 -0.19483,0.55052 0.16134,0.81555 0.24912,0.18537 0.81466,0.28394 1.25677,0.21906 z m -0.46948,-0.38314 c -0.17281,0.0576 -0.3142,-0.0838 -0.3142,-0.31418 0,-0.23041 0.18852,-0.41892 0.41893,-0.41892 0.23041,0 0.37179,0.14138 0.31419,0.31419 -0.0576,0.1728 -0.24612,0.36132 -0.41892,0.41892 z m 4.71288,0.58981 c 0.0808,0 0.41146,-0.18534 0.73488,-0.41187 0.37939,-0.26574 0.58804,-0.68603 0.58804,-1.18453 0,-0.53219 -0.20585,-0.90753 -0.66146,-1.20605 -0.61274,-0.40148 -0.71017,-0.40148 -1.32291,0 -0.45561,0.29852 -0.66146,0.67386 -0.66146,1.20605 0,0.4985 0.20864,0.91879 0.58804,1.18453 0.32341,0.22653 0.65411,0.41187 0.73487,0.41187 z m 0,-0.52916 c -0.0873,0 -0.30162,-0.14288 -0.47625,-0.3175 -0.17462,-0.17463 -0.3175,-0.51724 -0.3175,-0.76136 0,-0.24412 0.1786,-0.59207 0.39688,-0.77323 0.31663,-0.26278 0.47712,-0.26278 0.79375,0 0.21828,0.18116 0.39687,0.52911 0.39687,0.77323 0,0.24412 -0.14287,0.58673 -0.3175,0.76136 -0.17462,0.17462 -0.38893,0.3175 -0.47625,0.3175 z m 9.19216,0.40891 c 0.20687,-0.0794 0.54498,-0.14433 0.75136,-0.14433 0.2679,0 0.37523,-0.33792 0.37523,-1.18132 0,-0.89572 -0.12329,-1.2473 -0.51,-1.45426 -0.28049,-0.15012 -0.69721,-0.2011 -0.92604,-0.11329 -0.22882,0.0878 -0.41604,0.26457 -0.41604,0.39281 0,0.12823 0.25477,0.20479 0.56615,0.17013 0.31138,-0.0347 0.61609,0.0772 0.67714,0.24861 0.0644,0.18071 -0.20034,0.34745 -0.63003,0.39688 -0.46031,0.0529 -0.77522,0.26545 -0.83128,0.56096 -0.0496,0.26165 0.0577,0.65403 0.23856,0.87194 0.18085,0.21791 0.49808,0.33126 0.70495,0.25187 z m 0.18402,-0.49147 c -0.15462,0.0515 -0.36298,0.0117 -0.46302,-0.0883 -0.10005,-0.10005 -0.18191,-0.26723 -0.18191,-0.37153 0,-0.10429 0.24506,-0.25371 0.54458,-0.33204 0.39855,-0.10422 0.5227,-0.0297 0.46302,0.27795 -0.0449,0.23119 -0.20806,0.46247 -0.36267,0.51394 z m 4.32208,0.38896 c 0.25132,-0.1292 0.60578,-0.18153 0.78768,-0.11631 0.24593,0.0882 0.33073,-0.39584 0.33073,-1.88784 0,-1.16122 -0.11145,-2.00642 -0.26458,-2.00642 -0.14552,0 -0.26459,0.30568 -0.26459,0.67929 0,0.55294 -0.0959,0.64885 -0.51563,0.51563 -0.33288,-0.10565 -0.70797,0.0287 -1.05833,0.37905 -0.29849,0.29848 -0.5427,0.78082 -0.5427,1.07186 0,0.29104 0.24085,0.77002 0.53523,1.0644 0.38411,0.38411 0.66425,0.46891 0.99219,0.30034 z m -0.15712,-0.36629 c -0.17143,0.0571 -0.3807,-0.0759 -0.46505,-0.29575 -0.0843,-0.21979 -0.11417,-0.67618 -0.0663,-1.01418 0.0479,-0.33801 0.25269,-0.61456 0.45511,-0.61456 0.20242,0 0.49947,0.20836 0.6601,0.46302 0.20797,0.3297 0.21083,0.59181 0.01,0.9103 -0.15518,0.246 -0.4224,0.49402 -0.59382,0.55117 z m 3.13592,0.58905 c 0.0853,0 0.38625,-0.18042 0.66873,-0.40093 0.49127,-0.38351 0.48399,-0.39427 -0.1675,-0.24757 -0.44667,0.10057 -0.79932,0.0109 -1.02459,-0.26053 -0.30085,-0.3625 -0.2245,-0.41388 0.61495,-0.41388 0.8423,0 0.95844,-0.079 0.95844,-0.65215 0,-0.38841 -0.22118,-0.77052 -0.54691,-0.94485 -0.42543,-0.22768 -0.68989,-0.19901 -1.19063,0.12908 -0.43865,0.28742 -0.64371,0.66791 -0.64371,1.19443 0,0.4985 0.20865,0.91879 0.58804,1.18453 0.32342,0.22653 0.65785,0.41187 0.74318,0.41187 z m -0.19729,-1.85208 c -0.6617,0 -0.6845,-0.0337 -0.28998,-0.42818 0.2355,-0.2355 0.55867,-0.34754 0.71816,-0.24897 0.15948,0.0986 0.28997,0.29125 0.28997,0.42818 0,0.13693 -0.32317,0.24897 -0.71815,0.24897 z m -30.50268,1.5875 c 0.14552,0 0.26459,-0.29766 0.26459,-0.66146 0,-0.51383 0.13581,-0.66146 0.60854,-0.66146 0.33469,0 0.75141,-0.14287 0.92604,-0.3175 0.17462,-0.17462 0.3175,-0.56753 0.3175,-0.87312 0,-0.3056 -0.14288,-0.6985 -0.3175,-0.87313 -0.17463,-0.17462 -0.71041,-0.3175 -1.19063,-0.3175 h -0.87312 v 1.85209 c 0,1.05833 0.11339,1.85208 0.26458,1.85208 z m 0.8599,-1.89983 c -0.48834,0.0694 -0.59531,-0.0409 -0.59531,-0.61371 0,-0.57279 0.10697,-0.68307 0.59531,-0.61372 0.39074,0.0555 0.59531,0.26639 0.59531,0.61372 0,0.34732 -0.20457,0.55822 -0.59531,0.61371 z m 2.05052,1.89983 c 0.15287,0 0.26458,-0.83785 0.26458,-1.98438 0,-1.14652 -0.11171,-1.98437 -0.26458,-1.98437 -0.15287,0 -0.26459,0.83785 -0.26459,1.98437 0,1.14653 0.11172,1.98438 0.26459,1.98438 z m 8.73125,0 c 0.14552,0 0.26458,-0.45244 0.26458,-1.00542 0,-0.55298 0.14287,-1.14829 0.3175,-1.32291 0.24694,-0.24695 0.24694,-0.3175 0,-0.3175 -0.17463,0 -0.3175,-0.13571 -0.3175,-0.30157 0,-0.16585 0.20836,-0.46701 0.46302,-0.66923 0.425,-0.33749 0.40871,-0.36161 -0.19844,-0.29375 -0.45585,0.0509 -0.68773,0.25897 -0.746,0.66923 -0.0465,0.32743 -0.21914,0.59532 -0.38365,0.59532 -0.21218,0 -0.20684,0.0923 0.0184,0.3175 0.17463,0.17462 0.3175,0.76993 0.3175,1.32291 0,0.55298 0.11906,1.00542 0.26459,1.00542 z m 4.49791,0 c 0.14552,0 0.26458,-0.42787 0.26458,-0.95081 0,-0.7283 0.12384,-0.9832 0.52917,-1.08919 0.29104,-0.0761 0.52917,-0.23653 0.52917,-0.35649 0,-0.11997 -0.11084,-0.28661 -0.2463,-0.37034 -0.13547,-0.0837 -0.31788,-0.0364 -0.40535,0.10512 -0.0875,0.14155 -0.33383,0.19028 -0.54745,0.10831 -0.31023,-0.11905 -0.3884,0.12289 -0.3884,1.20218 0,0.74317 0.11906,1.35122 0.26458,1.35122 z m 1.83687,0 c 0.13716,0 0.28599,-0.50602 0.33073,-1.12448 0.0569,-0.78699 0.20048,-1.12448 0.47824,-1.12448 0.27776,0 0.42129,0.33749 0.47823,1.12448 0.0537,0.74249 0.20584,1.12448 0.44781,1.12448 0.24197,0 0.39409,-0.38199 0.44781,-1.12448 0.0569,-0.78699 0.20047,-1.12448 0.47823,-1.12448 0.27776,0 0.42129,0.33749 0.47824,1.12448 0.0448,0.61846 0.19357,1.12448 0.33072,1.12448 0.13716,0 0.24937,-0.52987 0.24937,-1.17748 0,-0.83959 -0.1309,-1.25074 -0.45619,-1.43277 -0.29441,-0.16477 -0.6288,-0.16292 -0.94295,0.005 -0.31822,0.17031 -0.59542,0.17066 -0.80058,0.001 -0.1726,-0.14272 -0.64124,-0.19663 -1.04142,-0.11981 -0.67535,0.12965 -0.72761,0.23247 -0.72761,1.43175 0,0.71064 0.11222,1.29207 0.24937,1.29207 z m 11.26001,-13.493754 h 136.92187 v -1.05833 -1.05834 H 152.05808 15.13621 v 1.05834 1.05833 z M 62.57253,51.618661 c 1.351643,0 1.391584,-0.0238 3.42397,-2.04431 1.131004,-1.12438 2.056374,-2.19594 2.056374,-2.38125 0,-0.23395 -0.466892,-0.33694 -1.527562,-0.33694 h -1.527561 l -2.076921,2.08918 c -1.176229,1.18316 -1.998636,2.21583 -1.896406,2.38125 0.09928,0.16064 0.79593,0.29207 1.548106,0.29207 z m 5.829445,0 h 1.905372 l 4.693597,-4.69904 c 2.581478,-2.58447 4.693597,-4.84665 4.693597,-5.02708 0,-0.23282 -0.596001,-0.32805 -2.053278,-0.32805 h -2.053278 l -4.727471,4.73296 c -2.756891,2.76008 -4.651701,4.85556 -4.545693,5.02708 0.106134,0.17173 0.974706,0.29413 2.087154,0.29413 z m 7.923264,0 h 1.922364 l 3.166729,-3.175 c 1.741702,-1.74625 3.349046,-3.175 3.571875,-3.175 0.22283,0 1.830173,1.42875 3.571875,3.175 l 3.166728,3.175 h 1.922365 c 1.64834,0 1.922364,-0.0655 1.922364,-0.4592 0,-0.25256 -1.45673,-1.91943 -3.237174,-3.70417 l -3.237176,-3.24496 h -4.10119 -4.101192 l -3.244966,3.23717 c -1.784731,1.78045 -3.244967,3.44733 -3.244967,3.70417 0,0.40342 0.261705,0.46699 1.922365,0.46699 z m 23.35493,0 c 0.372731,0 0.755721,-0.22883 0.930931,-0.55621 0.16372,-0.30592 0.23859,-0.78217 0.16637,-1.05834 -0.11886,-0.45451 0.0294,-0.50211 1.56371,-0.50211 1.68007,0 1.69503,0.007 1.69503,0.74083 0,0.40746 0.14287,0.88371 0.3175,1.05833 0.17462,0.17463 0.57676,0.3175 0.89364,0.3175 0.31688,0 0.7238,-0.17791 0.90426,-0.39535 0.18046,-0.21745 0.27222,-0.68773 0.20391,-1.04508 -0.0784,-0.40995 0.015,-0.70314 0.25301,-0.79447 0.20746,-0.0796 0.33723,-0.35347 0.28838,-0.60857 -0.0786,-0.41022 -0.54676,-0.47911 -4.05133,-0.59611 -3.478432,-0.11613 -3.973181,-0.18803 -4.049863,-0.5885 -0.07925,-0.41389 0.300239,-0.46298 4.090873,-0.52917 l 4.17822,-0.073 0.17864,-1.05833 c 0.0983,-0.58208 0.22049,-1.77271 0.27163,-2.64583 l 0.093,-1.5875 -5.73546,-0.0713 -5.735466,-0.0713 -0.680683,-0.80894 c -0.374374,-0.44492 -0.68068,-1.00983 -0.68068,-1.25534 0,-0.24552 -1.584603,-2.02774 -3.521339,-3.96049 l -3.521341,-3.51409 -2.101054,0.0782 -2.101056,0.0782 -0.07319,4.23139 -0.07319,4.2314 -1.238152,1.25705 c -0.853157,0.86619 -1.15302,1.34219 -0.964372,1.53084 0.170501,0.1705 1.713183,0.24598 4.089466,0.20009 l 3.815689,-0.0737 0.07481,-2.97656 c 0.04115,-1.63711 0.165184,-2.97657 0.27564,-2.97657 0.110458,0 0.726658,0.53579 1.369339,1.19063 0.922967,0.94043 1.354289,1.19062 2.052611,1.19062 0.75928,0 0.848056,0.0644 0.628804,0.45619 -0.161952,0.2894 -0.163357,0.62798 -0.0038,0.92605 0.138301,0.25841 0.402506,0.46985 0.587121,0.46985 0.184613,0 0.70425,0.38695 1.154742,0.85989 0.587246,0.61652 1.082498,1.6816 1.749751,3.763 0.511868,1.59671 1.059402,2.94601 1.216742,2.99846 0.157339,0.0524 0.218135,0.36605 0.135099,0.69688 -0.09386,0.37397 0.01355,0.76606 0.283937,1.03644 0.239202,0.2392 0.719873,0.43491 1.06816,0.43491 z m 56.643391,0 c 0.51077,0 1.18874,-0.13644 1.5066,-0.30321 0.31785,-0.16676 0.67697,-0.47128 0.79803,-0.6767 0.17782,-0.30173 0.334,-0.25061 0.81281,0.26604 0.51813,0.55906 0.83166,0.64103 2.49187,0.65142 l 1.89916,0.0119 v -2.22368 -2.22368 h -0.91221 -0.91221 l -0.08,1.38907 c -0.0589,1.02279 -0.18462,1.38906 -0.47685,1.38906 -0.29222,0 -0.41796,-0.36627 -0.47684,-1.38906 l -0.08,-1.38907 h -0.91221 -0.91222 v 1.35237 1.35236 l -0.8894,-0.16685 c -0.62106,-0.11652 -0.98611,-0.0503 -1.20996,0.21941 -0.17632,0.21244 -0.48126,0.3246 -0.67765,0.24924 -0.19639,-0.0754 -0.42207,-0.30641 -0.50152,-0.51344 -0.0794,-0.20703 -0.0761,-0.55458 0.007,-0.77232 0.12055,-0.31415 0.44665,-0.36126 1.5792,-0.22816 1.19014,0.13988 1.42727,0.099 1.42727,-0.24635 0,-0.22775 -0.32742,-0.67248 -0.7276,-0.98827 -0.57536,-0.45403 -0.9691,-0.5472 -1.88172,-0.44524 -0.68644,0.0767 -1.38091,0.35572 -1.71378,0.6886 -0.38787,0.38787 -0.55966,0.89273 -0.55966,1.64474 0,0.85873 0.1536,1.2172 0.73634,1.71845 0.47428,0.40796 1.06687,0.63338 1.66503,0.63338 z m 10.45573,-0.0168 c 0.57713,0.01 1.21311,-0.18672 1.5875,-0.49118 0.55134,-0.44835 0.67509,-0.46255 1.05482,-0.12098 0.23662,0.21283 0.85523,0.45594 1.3747,0.54024 0.51947,0.0843 1.24711,0.0773 1.61697,-0.0155 0.36986,-0.0928 0.86104,-0.45656 1.0915,-0.8083 0.33065,-0.50463 0.35561,-0.758 0.11835,-1.20134 -0.16538,-0.30901 -0.5608,-0.66664 -0.8787,-0.79473 -0.47181,-0.19009 -0.37139,-0.23597 0.54646,-0.24965 l 1.12448,-0.0168 v 1.31361 c 0,1.02794 0.11129,1.37317 0.51177,1.5875 0.28147,0.15064 0.87679,0.27389 1.32292,0.27389 0.55776,0 0.81114,-0.12866 0.81114,-0.41188 0,-0.37278 0.0558,-0.37278 0.58804,0 0.32342,0.22654 0.91171,0.41188 1.3073,0.41188 0.39559,0 0.79926,-0.12943 0.89703,-0.28763 0.12801,-0.20713 0.25828,-0.20713 0.46541,0 0.1582,0.1582 0.62101,0.28763 1.02847,0.28763 0.73593,0 0.74083,-0.0114 0.74083,-1.73182 0,-1.48594 -0.0922,-1.82402 -0.64943,-2.38125 -0.46362,-0.46362 -0.93674,-0.64831 -1.65365,-0.64553 -0.55231,0.002 -1.30081,0.15397 -1.66332,0.33738 -0.36252,0.18341 -0.69397,0.51444 -0.73657,0.73562 -0.0453,0.23531 0.22813,0.52274 0.65912,0.69281 0.66291,0.2616 0.67797,0.29348 0.15056,0.31881 -0.3223,0.0155 -0.71345,0.26627 -0.86921,0.55732 -0.15576,0.29104 -0.4576,0.52916 -0.67076,0.52916 -0.25424,0 -0.38757,-0.27306 -0.38757,-0.79375 0,-0.52916 0.13229,-0.79375 0.39688,-0.79375 0.24694,0 0.39687,-0.24988 0.39687,-0.66146 0,-0.41157 -0.14993,-0.66145 -0.39687,-0.66145 -0.26459,0 -0.39688,-0.26459 -0.39688,-0.79375 0,-0.43657 -0.11346,-0.79375 -0.25213,-0.79375 -0.13868,0 -0.5554,0.13817 -0.92605,0.30705 -0.37065,0.16888 -0.6739,0.52607 -0.6739,0.79375 0,0.26768 -0.1786,0.4867 -0.39688,0.4867 -0.21828,0 -0.39687,0.12581 -0.39687,0.27958 0,0.15671 -0.25844,0.0986 -0.58804,-0.13229 -0.32342,-0.22653 -1.04321,-0.41188 -1.59953,-0.41188 -0.74174,0 -1.19871,0.18723 -1.71353,0.70205 -0.42649,0.42649 -0.74271,0.58008 -0.80563,0.39131 -0.057,-0.17091 -0.4441,-0.48683 -0.86029,-0.70205 -0.41619,-0.21522 -1.11067,-0.39131 -1.54329,-0.39131 -0.46022,0 -1.12436,0.28421 -1.60064,0.68498 -0.62158,0.52302 -0.81405,0.90248 -0.81405,1.6049 0,0.50595 0.12684,1.15692 0.28188,1.44661 0.15503,0.28968 0.54198,0.63149 0.85989,0.75958 0.31791,0.12809 1.01131,0.24044 1.5409,0.24966 z m 2.29435,-1.43844 c -1.6007,0 -2.96568,-0.0893 -3.03327,-0.19843 -0.0676,-0.10914 0.5985,-0.19844 1.48021,-0.19844 1.5674,0 1.60359,-0.0162 1.62401,-0.72761 0.0124,-0.43162 0.0837,-0.56616 0.17521,-0.33072 0.0849,0.21828 0.34338,0.54191 0.57443,0.71919 0.23105,0.17727 0.65822,0.32792 0.94926,0.33478 0.29104,0.007 0.66673,0.0999 0.83485,0.20685 0.16812,0.10691 -1.00399,0.19438 -2.6047,0.19438 z m 10.32489,0.1323 c -0.28406,0 -0.45177,-0.1047 -0.37269,-0.23265 0.0791,-0.12796 0.37485,-0.29307 0.65728,-0.36693 0.3612,-0.0945 0.47173,-0.0255 0.37268,0.23265 -0.0774,0.20181 -0.37321,0.36693 -0.65727,0.36693 z m -12.64046,-1.5875 c -0.29963,0 -0.54479,-0.11907 -0.54479,-0.26459 0,-0.14552 0.17157,-0.26458 0.38126,-0.26458 0.2097,0 0.45485,0.11906 0.54479,0.26458 0.0899,0.14552 -0.0816,0.26459 -0.38126,0.26459 z m 12.52086,0 c -0.21828,0 -0.32329,-0.11907 -0.23335,-0.26459 0.0899,-0.14552 0.34211,-0.26458 0.56039,-0.26458 0.21828,0 0.32329,0.11906 0.23336,0.26458 -0.0899,0.14552 -0.34212,0.26459 -0.5604,0.26459 z m -7.92832,-0.28548 c -0.30823,-0.0127 -0.37092,-0.0754 -0.15985,-0.15985 0.19099,-0.0764 0.4192,-0.067 0.50712,0.0209 0.0879,0.0879 -0.0684,0.15045 -0.34727,0.13896 z m 14.29635,3.19589 h 0.91283 l 0.0794,-1.52135 c 0.0595,-1.14066 0.17866,-1.52136 0.47623,-1.52136 0.29756,0 0.41673,0.3807 0.47622,1.52136 l 0.0794,1.52135 h 0.89963 0.89964 l 0.0794,-1.45825 c 0.0436,-0.80204 0.19841,-1.45825 0.34393,-1.45825 0.14552,0 0.30029,0.65621 0.34393,1.45825 l 0.0794,1.45825 h 0.91284 0.91284 v -1.89739 c 0,-1.39426 -0.11612,-2.02571 -0.43788,-2.38125 -0.24084,-0.26612 -0.66538,-0.48386 -0.94344,-0.48386 -0.27805,0 -0.71993,0.11473 -0.98194,0.25496 -0.3148,0.16847 -0.7444,0.15379 -1.26651,-0.0433 -0.44586,-0.1683 -1.00885,-0.20633 -1.29215,-0.0873 -0.27612,0.11602 -0.94852,0.18592 -1.49423,0.15534 l -0.99218,-0.0556 v 2.26919 2.26919 z m 9.43637,-0.008 c 0.5771,0.005 1.23304,-0.20947 1.65365,-0.54033 0.38342,-0.3016 0.69714,-0.67518 0.69714,-0.83017 0,-0.18593 -0.49511,-0.22362 -1.45521,-0.11078 -0.91519,0.10756 -1.45521,0.072 -1.45521,-0.0959 0,-0.14712 0.65306,-0.2669 1.45521,-0.2669 1.42811,0 1.45521,-0.0142 1.45521,-0.76444 0,-0.42044 -0.21306,-1.02755 -0.47347,-1.34914 -0.3169,-0.39135 -0.86773,-0.62914 -1.66582,-0.71909 -1.01869,-0.11482 -1.31584,-0.0305 -2.04008,0.57891 -0.67415,0.56725 -0.84772,0.91483 -0.84772,1.69754 0,0.54134 0.14883,1.1708 0.33073,1.3988 0.1819,0.228 0.56886,0.54479 0.8599,0.70398 0.29104,0.15919 0.95959,0.29305 1.48567,0.29748 z m -0.0305,-2.90237 c -0.49389,0 -0.56445,-0.0706 -0.3175,-0.3175 0.24694,-0.24695 0.38805,-0.24695 0.635,0 0.24694,0.24694 0.17639,0.3175 -0.3175,0.3175 z m 3.55867,2.91041 h 0.91283 l 0.0794,-1.52135 c 0.0595,-1.14066 0.17866,-1.52136 0.47622,-1.52136 0.29756,0 0.41673,0.3807 0.47622,1.52136 l 0.0794,1.52135 h 0.91284 c 0.89189,0 0.91367,-0.0258 0.94887,-1.12448 0.0198,-0.61846 0.086,-0.86902 0.14707,-0.55679 0.0611,0.31222 0.35502,0.78847 0.65321,1.05833 0.37166,0.33635 0.94716,0.49065 1.82995,0.49065 0.95858,0 1.43093,-0.14313 1.84769,-0.5599 l 0.5599,-0.5599 0.62605,0.62605 c 0.44063,0.44062 0.92347,0.62489 1.63026,0.62214 0.55232,-0.002 1.30187,-0.15449 1.66567,-0.33854 0.51257,-0.25932 0.66146,-0.53958 0.66146,-1.24506 0,-0.70548 -0.14889,-0.98574 -0.66146,-1.24506 -0.63247,-0.31998 -0.63606,-0.33481 -0.0818,-0.33854 0.31883,-0.002 0.64735,-0.11336 0.73004,-0.24715 0.0827,-0.13379 -0.0377,-0.43127 -0.26747,-0.66106 -0.2298,-0.2298 -0.72348,-0.49453 -1.09707,-0.58829 -0.3736,-0.0938 -1.09775,-0.0642 -1.60923,0.0657 -0.51148,0.12993 -1.05425,0.43535 -1.20615,0.67871 -0.19447,0.31156 -0.18605,0.6403 0.0285,1.11112 0.20863,0.4579 0.65032,0.76171 1.40145,0.96397 0.60324,0.16244 1.05502,0.334 1.00395,0.38126 -0.0511,0.0472 -0.68817,0.0268 -1.41577,-0.0454 -1.29498,-0.12858 -1.32333,-0.15019 -1.34251,-1.02323 -0.0108,-0.49053 -0.23548,-1.13042 -0.49935,-1.42199 -0.26386,-0.29156 -0.89336,-0.60771 -1.3989,-0.70255 -0.61068,-0.11456 -1.21772,-0.0301 -1.80881,0.25182 -0.5653,0.26957 -0.95473,0.68349 -1.06812,1.13529 l -0.17846,0.71105 -0.29151,-0.89621 c -0.19079,-0.58659 -0.53219,-0.98062 -0.98815,-1.14052 -0.38315,-0.13437 -0.91894,-0.15077 -1.19063,-0.0365 -0.27168,0.11432 -0.94046,0.18283 -1.48616,0.15225 l -0.99219,-0.0556 v 2.26919 2.26919 z m 6.46718,-1.5875 c -0.38012,0 -0.50085,-0.19134 -0.50085,-0.79375 0,-0.60241 0.12073,-0.79375 0.50085,-0.79375 0.27548,0 0.5694,0.1786 0.65316,0.39688 0.0838,0.21828 0.0838,0.57547 0,0.79375 -0.0838,0.21828 -0.37768,0.39687 -0.65316,0.39687 z m 4.90106,-1.60839 c -0.30823,-0.0127 -0.37092,-0.0754 -0.15986,-0.15985 0.191,-0.0764 0.4192,-0.067 0.50712,0.0209 0.0879,0.0879 -0.0684,0.15045 -0.34726,0.13896 z m -142.526225,-2.15072 2.054527,-0.0773 0.07339,-1.4552 c 0.04037,-0.80037 0.133182,-1.62295 0.206257,-1.82795 0.100692,-0.28249 0.31066,-0.20241 0.867129,0.33073 0.403845,0.3869 0.841143,0.70346 0.971773,0.70346 0.13063,0 0.630131,-0.38054 1.110001,-0.84565 0.479872,-0.46511 0.872492,-0.97392 0.872492,-1.13068 0,-0.15677 -0.930798,-1.21038 -2.068443,-2.34135 l -2.068442,-2.05631 -2.098747,0.0781 -2.098743,0.0781 -0.07353,3.95712 c -0.04044,2.17642 -0.01249,4.11623 0.06214,4.31068 0.100796,0.26268 0.6638,0.33368 2.190197,0.27621 z m 79.646185,-2.46995 c 1.05646,-0.063 2.45544,-0.24925 3.10885,-0.41378 l 1.18803,-0.29915 v -1.68838 c 0,-0.92861 -0.0383,-1.68838 -0.0852,-1.68838 -0.0468,0 -0.64681,0.19137 -1.33326,0.42527 -0.8506,0.28983 -1.87149,0.39379 -3.20539,0.32644 -1.62332,-0.082 -2.07301,-0.20756 -2.63549,-0.73598 -0.37301,-0.35042 -0.6782,-0.79498 -0.6782,-0.98789 0,-0.27802 0.96747,-0.35076 4.66576,-0.35076 h 4.66576 l -0.1311,-1.83224 c -0.0988,-1.38083 -0.32632,-2.17935 -0.92351,-3.24114 -0.54484,-0.96871 -1.1905,-1.6569 -2.06652,-2.20266 -1.19669,-0.74552 -1.43655,-0.79375 -3.94775,-0.79375 -2.33401,0 -2.83721,0.0842 -3.96128,0.66265 -0.7082,0.36445 -1.64507,1.10424 -2.08191,1.64398 -0.43685,0.53974 -0.94752,1.55123 -1.13483,2.24777 l -0.34057,1.26644 -0.0179,-1.23955 c -0.01,-0.68175 -0.14423,-1.57472 -0.29867,-1.98438 -0.15445,-0.40965 -0.65518,-1.13294 -1.11275,-1.60731 -0.45756,-0.47436 -1.25393,-0.97971 -1.7697,-1.123 -0.51578,-0.14329 -1.32855,-0.26119 -1.80617,-0.262 -0.47762,-8.2e-4 -1.30943,0.1828 -1.84847,0.40803 -0.53905,0.22523 -1.2496,0.6627 -1.57901,0.97216 l -0.59892,0.56266 v -3.4857 -3.4857 h -2.38125 -2.38125 v 9.26041 9.26042 h 2.38125 2.38125 v -3.58038 c 0,-2.47426 0.1147,-3.85488 0.37127,-4.46894 0.26659,-0.63804 0.63594,-0.97593 1.30996,-1.19837 0.68202,-0.22509 1.08527,-0.23135 1.47475,-0.0229 0.29483,0.15779 0.68334,0.55205 0.86336,0.87614 0.2026,0.36474 0.36711,2.07619 0.43178,4.49185 l 0.10447,3.90261 h 2.22012 2.22012 l 0.0271,-2.84427 c 0.0171,-1.79754 0.0982,-2.55216 0.22032,-2.05052 0.10628,0.43656 0.38404,1.15988 0.61725,1.60738 0.2332,0.4475 0.89743,1.24134 1.47606,1.7641 0.57863,0.52276 1.3152,1.0913 1.63682,1.26343 0.32163,0.17212 1.13583,0.41355 1.80935,0.5365 0.67352,0.12294 2.08895,0.17195 3.14541,0.1089 z m -1.04194,-8.05844 h -2.39146 l 0.18159,-0.7276 c 0.0999,-0.40019 0.35967,-0.92526 0.57732,-1.16683 0.21765,-0.24158 0.68362,-0.51148 1.03549,-0.5998 0.35187,-0.0883 1.05748,0.014 1.56803,0.22729 0.51054,0.21332 0.92826,0.42448 0.92826,0.46925 0,0.0448 0.11076,0.46756 0.24612,0.93954 l 0.24611,0.85815 z m -28.13097,7.89458 c 1.30969,-0.004 3.03609,-0.14545 3.83646,-0.31332 l 1.45521,-0.30522 0.0763,-2.30471 0.0763,-2.30472 -1.26692,0.56169 c -0.74969,0.33238 -2.05112,0.61246 -3.18773,0.68603 -1.41189,0.0914 -2.23232,0.005 -3.09653,-0.32467 -0.64664,-0.24695 -1.52584,-0.84779 -1.95378,-1.33518 -0.42794,-0.4874 -0.92466,-1.33033 -1.10382,-1.87319 -0.19226,-0.58256 -0.27083,-1.67108 -0.19174,-2.65639 0.0744,-0.92713 0.35385,-2.04464 0.62846,-2.51336 0.27196,-0.46419 0.95236,-1.21379 1.51201,-1.66578 0.97376,-0.78644 1.12175,-0.82161 3.43958,-0.81726 1.99152,0.004 2.62005,0.10955 3.53598,0.59531 0.61267,0.32493 1.17821,0.59077 1.25677,0.59077 0.0786,0 0.14283,-0.99655 0.14283,-2.21457 v -2.21457 l -1.25677,-0.36511 c -0.76338,-0.22178 -2.50323,-0.36346 -4.43177,-0.36089 -2.93549,0.004 -3.30057,0.0619 -4.83962,0.76866 -1.11212,0.51071 -2.09075,1.23069 -2.94849,2.16919 -0.71824,0.78587 -1.47929,1.96259 -1.72744,2.67092 -0.24396,0.69639 -0.51073,2.17435 -0.59283,3.28436 -0.11891,1.6079 -0.0356,2.3924 0.40985,3.85893 0.39066,1.28615 0.88756,2.21389 1.64926,3.07922 0.59958,0.68117 1.58727,1.52981 2.19487,1.88589 0.6076,0.35608 1.75669,0.82261 2.55352,1.03674 0.79684,0.21413 2.52036,0.38568 3.83005,0.38123 z m 65.11208,-0.0228 c 1.55436,-0.0602 2.03399,-0.19262 2.79268,-0.7713 l 0.91601,-0.69868 0.25003,0.56943 c 0.21902,0.49882 0.49609,0.57889 2.2344,0.64577 l 1.98438,0.0764 -0.0883,-4.82271 c -0.0772,-4.2175 -0.15732,-4.96956 -0.63831,-5.99282 -0.30786,-0.65495 -1.00623,-1.50058 -1.58624,-1.92074 -0.56992,-0.41285 -1.46235,-0.89127 -1.98318,-1.06316 -0.59295,-0.19569 -1.7968,-0.25918 -3.22026,-0.16983 -1.25031,0.0785 -2.66025,0.28417 -3.13319,0.45707 l -0.8599,0.31438 v 1.945 1.94499 l 0.90193,-0.37685 c 0.49606,-0.20727 1.45684,-0.50121 2.13507,-0.6532 0.86004,-0.19274 1.54641,-0.192 2.26857,0.002 0.56949,0.15334 1.15652,0.50506 1.30452,0.7816 0.14799,0.27653 0.26862,0.65944 0.26805,0.85091 -7.9e-4,0.25999 -0.5963,0.35346 -2.35261,0.3692 -2.01203,0.018 -2.56984,0.12787 -3.86315,0.76063 -1.21796,0.59589 -1.60784,0.95155 -2.0072,1.831 -0.2726,0.6003 -0.49825,1.41113 -0.50145,1.80184 -0.003,0.39071 0.12118,1.04555 0.2764,1.4552 0.15521,0.40966 0.54217,1.0279 0.85989,1.37388 0.31773,0.34597 0.93488,0.79401 1.37144,0.99563 0.50169,0.23169 1.48428,0.33986 2.67042,0.29395 z m 0.8012,-3.10924 c -0.36063,0 -0.8428,-0.1871 -1.07147,-0.41577 -0.22868,-0.22868 -0.41395,-0.61563 -0.41172,-0.8599 0.002,-0.24426 0.094,-0.5855 0.20382,-0.7583 0.10988,-0.17279 0.53252,-0.44068 0.93921,-0.59531 0.4067,-0.15462 1.20092,-0.28114 1.76494,-0.28114 0.56402,0 1.10352,0.12625 1.19889,0.28056 0.0954,0.1543 0.0261,0.63617 -0.15395,1.07081 -0.18003,0.43464 -0.66184,0.96324 -1.07067,1.17465 -0.40884,0.21142 -1.03841,0.3844 -1.39905,0.3844 z m 13.25025,3.14792 c 0.17474,0.0149 0.92827,-0.10386 1.67451,-0.2639 0.82593,-0.17713 1.71096,-0.60194 2.26198,-1.08574 0.82276,-0.7224 0.90518,-0.74605 0.90518,-0.25983 0,0.29422 0.0723,0.72327 0.1606,0.95345 0.12772,0.33283 0.58913,0.41852 2.25358,0.41852 h 2.09298 l -0.0708,-6.54844 -0.0708,-6.54844 -2.31511,-0.0764 -2.3151,-0.0764 v 3.44453 c 0,2.5582 -0.11031,3.72022 -0.42869,4.51594 -0.23578,0.58927 -0.64468,1.18699 -0.90865,1.32827 -0.26397,0.14127 -0.82652,0.25686 -1.25009,0.25686 -0.44652,0 -0.98194,-0.2338 -1.27417,-0.55638 -0.44203,-0.48796 -0.51502,-1.07373 -0.59342,-4.7625 l -0.0894,-4.20612 h -2.51091 -2.51091 l 0.0868,4.96094 c 0.0811,4.63455 0.12757,5.03213 0.70701,6.0431 0.34114,0.59519 0.98773,1.29924 1.43686,1.56455 0.44913,0.26531 1.18205,0.56982 1.62871,0.67669 0.44665,0.10687 0.95507,0.20649 1.1298,0.22139 z m -38.07847,-0.24786 c 0.76865,0.006 1.80931,-0.16168 2.31257,-0.37196 0.50325,-0.21027 1.20733,-0.67463 1.5646,-1.03191 l 0.6496,-0.64959 0.0805,0.96576 0.0805,0.96577 2.05052,0.0773 2.05052,0.0773 v -9.27155 -9.27154 h -2.24895 -2.24896 v 3.4857 3.4857 l -0.59881,-0.56276 c -0.3294,-0.30946 -1.03995,-0.74693 -1.579,-0.97216 -0.53904,-0.22523 -1.54162,-0.4095 -2.22796,-0.4095 -0.72671,0 -1.72697,0.23193 -2.39503,0.55533 -0.68343,0.33084 -1.4605,1.01074 -1.92228,1.68192 -0.42631,0.61962 -0.91596,1.68594 -1.0881,2.36958 -0.17215,0.68365 -0.2535,1.98411 -0.18079,2.88993 0.0756,0.94155 0.3835,2.13952 0.71894,2.79704 0.32271,0.63256 0.90408,1.44836 1.29193,1.81289 0.38785,0.36453 1.06236,0.82108 1.49893,1.01456 0.43656,0.19348 1.42265,0.35645 2.19131,0.36214 z m 1.48547,-3.42923 c -0.65711,0 -1.10958,-0.20032 -1.56681,-0.69367 -0.35358,-0.38153 -0.71833,-1.0959 -0.81056,-1.5875 -0.0922,-0.49161 -0.0908,-1.30337 0.003,-1.80392 0.1045,-0.55705 0.49513,-1.18305 1.00699,-1.61376 0.67872,-0.5711 1.01347,-0.67531 1.77694,-0.55316 0.51738,0.0828 1.14607,0.40178 1.39711,0.70889 0.25104,0.30711 0.56724,0.95971 0.70268,1.45023 0.1428,0.51718 0.15139,1.31412 0.0205,1.89705 -0.12419,0.55287 -0.53633,1.27311 -0.91587,1.60053 -0.43117,0.37197 -1.0367,0.59531 -1.61398,0.59531 z m 10.8753,3.43959 h 2.51354 v -3.31579 c 0,-2.2049 0.12073,-3.60103 0.36036,-4.16719 0.1982,-0.46827 0.62522,-1.08754 0.94894,-1.37615 0.44616,-0.39777 0.96721,-0.52476 2.15319,-0.52476 h 1.56459 v -1.9525 -1.95249 l -1.84595,0.1043 c -1.66787,0.0943 -1.93403,0.18967 -2.75888,0.98915 l -0.91293,0.88485 -0.0854,-0.89315 -0.0854,-0.89315 -2.18281,-0.0768 -2.18281,-0.0768 v 6.62529 6.62528 z m 38.23229,0 h 2.38125 v -6.61459 -6.61458 h -2.38125 -2.38125 v 6.61458 6.61459 z M 97.897782,41.018561 c 0.189127,0.009 0.680715,-0.15742 1.092417,-0.37032 0.411703,-0.2129 0.822508,-0.57983 0.912903,-0.81539 0.09039,-0.23557 0.164358,-0.76601 0.164358,-1.17877 0,-0.41276 -0.07396,-0.94321 -0.164358,-1.17877 -0.0904,-0.23557 -0.515805,-0.61005 -0.945354,-0.83217 -0.486677,-0.25168 -1.071634,-0.34004 -1.552212,-0.23449 -0.42417,0.0932 -1.010791,0.47396 -1.303605,0.84622 -0.292817,0.37225 -0.532392,0.99146 -0.532392,1.37602 0,0.38456 0.191334,0.97236 0.425186,1.30623 0.233851,0.33387 0.680336,0.71 0.992187,0.83585 0.311851,0.12585 0.721744,0.23636 0.91087,0.24559 z m -19.729326,-0.30465 2.71671,-0.0755 0.07608,-2.44739 c 0.04184,-1.34607 0.151527,-2.4474 0.24375,-2.4474 0.09222,0 0.377907,0.19026 0.634858,0.4228 0.25695,0.23253 0.593746,0.34457 0.748437,0.24896 0.156451,-0.0967 0.281189,-1.01808 0.281107,-2.07644 l -1.46e-4,-1.90261 -1.713815,-1.53259 -1.713812,-1.53259 -2.056352,0.0774 -2.056352,0.0774 -0.07193,5.28421 c -0.03956,2.90631 -0.01193,5.44058 0.06142,5.6317 0.10083,0.26276 0.795822,0.3291 2.85006,0.27205 z M 67.43726,37.314391 c 0.316259,0.009 0.941337,-0.29147 1.389062,-0.66821 0.677799,-0.57033 0.814052,-0.87638 0.814052,-1.82856 0,-0.95218 -0.136253,-1.25823 -0.814052,-1.82856 -0.479912,-0.40382 -1.139875,-0.68498 -1.607852,-0.68498 -0.524581,0 -1.0561,0.2623 -1.567198,0.7734 -0.547394,0.54739 -0.773398,1.03275 -0.773398,1.66092 0,0.48813 0.191333,1.16069 0.425185,1.49456 0.233852,0.33387 0.680337,0.71 0.992188,0.83585 0.311851,0.12584 0.825756,0.23636 1.142013,0.24558 z m 18.152758,-5.54984 c 0.113813,0.006 0.611923,-0.15885 1.106906,-0.36567 0.519525,-0.21707 1.085069,-0.73397 1.337833,-1.22277 0.283422,-0.54807 0.381514,-1.14711 0.278107,-1.69832 -0.08787,-0.46837 -0.465183,-1.13851 -0.838481,-1.48921 -0.501914,-0.47152 -0.977778,-0.63763 -1.826717,-0.63763 -0.844347,0 -1.32496,0.16625 -1.817042,0.62854 -0.367977,0.3457 -0.741508,0.95844 -0.83007,1.36166 -0.09238,0.42062 0.01032,1.14319 0.240954,1.69517 0.265583,0.63563 0.697103,1.09028 1.271775,1.33997 0.478391,0.20785 0.962919,0.38257 1.076735,0.38826 z m 124.089572,-1.85849 c 0.11382,0.009 0.61025,-0.15175 1.10319,-0.35771 0.49293,-0.20596 1.02489,-0.61485 1.18212,-0.90865 0.15724,-0.29379 0.28588,-0.96413 0.28588,-1.48963 0,-0.66166 -0.1997,-1.15516 -0.64943,-1.60489 -0.49142,-0.49143 -0.93082,-0.64943 -1.80596,-0.64943 -0.89834,0 -1.29839,0.15099 -1.79195,0.67637 -0.4445,0.47314 -0.63542,0.98354 -0.63542,1.69866 0,0.6459 0.19261,1.23638 0.52315,1.60381 0.28774,0.31984 0.76128,0.67899 1.05232,0.79811 0.29104,0.11912 0.62229,0.22413 0.7361,0.23336 z M 77.632572,28.864491 c 0.711983,0 1.227063,-0.20711 1.809548,-0.7276 0.572847,-0.51188 0.857282,-1.04842 0.959366,-1.80968 0.126971,-0.94685 0.03885,-1.20309 -0.705204,-2.05052 -0.72906,-0.83035 -1.01109,-0.96844 -1.977843,-0.96844 -0.729821,0 -1.366681,0.18811 -1.805521,0.5333 -0.372894,0.29332 -0.811533,0.93795 -0.974755,1.43252 -0.234026,0.70911 -0.216016,1.09248 0.08519,1.81336 0.210077,0.50279 0.659151,1.10831 0.997942,1.34561 0.338794,0.2373 1.063869,0.43145 1.611277,0.43145 z"
       id="path248" /></g></svg>
